<?xml version="1.0" encoding="utf-8"?>
<!-- Generator: Adobe Illustrator 16.0.0, SVG Export Plug-In . SVG Version: 6.00 Build 0)  -->
<!DOCTYPE svg PUBLIC "-//W3C//DTD SVG 1.1//EN" "http://www.w3.org/Graphics/SVG/1.1/DTD/svg11.dtd">
<svg version="1.1" id="圖層_1" xmlns="http://www.w3.org/2000/svg" xmlns:xlink="http://www.w3.org/1999/xlink" x="0px" y="0px"
	 width="1080px" height="844.501px" viewBox="0 0 1080 844.501" enable-background="new 0 0 1080 844.501" xml:space="preserve">
<g>
	<g>
		<path fill="#303030" d="M49.499,756.551l9.229-22.4c9.87,6.921,19.581,10.383,29.13,10.383c14.678,0,22.016-5.125,22.016-15.382
			c0-4.808-1.729-9.387-5.191-13.749c-3.461-4.357-10.592-9.243-21.389-14.659c-10.802-5.417-18.076-9.87-21.826-13.362
			s-6.633-7.643-8.651-12.451c-2.02-4.809-3.029-10.127-3.029-15.957c0-10.896,3.991-19.933,11.97-27.117
			c7.98-7.173,18.219-10.766,30.714-10.766c16.281,0,28.234,3.048,35.862,9.136l-7.594,21.536
			c-8.783-6.282-18.044-9.422-27.785-9.422c-5.768,0-10.239,1.522-13.411,4.564c-3.173,3.046-4.759,7.003-4.759,11.874
			c0,8.076,8.941,16.472,26.823,25.188c9.421,4.614,16.215,8.864,20.381,12.739c4.167,3.88,7.338,8.396,9.518,13.557
			c2.179,5.159,3.27,10.908,3.27,17.255c0,11.409-4.505,20.802-13.509,28.17c-9.004,7.373-21.07,11.054-36.195,11.054
			C71.931,766.74,60.076,763.348,49.499,756.551z"/>
		<path fill="#303030" d="M148.713,712.618c0-15.706,4.534-28.49,13.605-38.359c9.067-9.87,21.037-14.81,35.908-14.81
			c15.639,0,27.785,4.747,36.438,14.231c8.652,9.486,12.979,22.465,12.979,38.938c0,16.407-4.407,29.449-13.221,39.124
			c-8.812,9.681-20.877,14.52-36.195,14.52c-15.64,0-27.801-4.889-36.484-14.663C153.055,741.828,148.713,728.831,148.713,712.618z
			 M173.71,712.618c0,22.686,8.171,34.032,24.516,34.032c7.499,0,13.442-2.947,17.834-8.846c4.39-5.896,6.584-14.291,6.584-25.187
			c0-22.371-8.138-33.556-24.418-33.556c-7.499,0-13.461,2.951-17.882,8.846C175.922,693.808,173.71,702.041,173.71,712.618z"/>
		<path fill="#303030" d="M271.003,623.015l24.033-5.769v115.75c0,12.69,3.781,20.257,11.346,22.69
			c-3.719,7.053-10.063,10.575-19.036,10.575c-10.896,0-16.343-7.561-16.343-22.689V623.015z"/>
		<path fill="#303030" d="M367.623,766.262h-8.652l-46.532-104.888h26.343l24.612,62.874l26.438-62.874h25.478L367.623,766.262z"/>
		<path fill="#303030" d="M520.677,720.211h-73.547c0.448,8.206,3.269,14.584,8.46,19.131c5.191,4.551,12.176,6.826,20.958,6.826
			c10.962,0,19.292-2.852,24.997-8.558l9.326,18.364c-8.46,6.858-21.088,10.287-37.879,10.287c-15.705,0-28.12-4.6-37.255-13.798
			c-9.133-9.194-13.7-22.027-13.7-38.503c0-16.215,5.016-29.352,15.048-39.414c10.028-10.063,22.063-15.098,36.099-15.098
			c14.934,0,26.919,4.457,35.957,13.367c9.036,8.909,13.556,20.251,13.556,34.032C522.696,709.797,522.022,714.249,520.677,720.211z
			 M447.994,702.136h50.57c-1.667-15.061-9.998-22.592-24.995-22.592C459.85,679.544,451.327,687.075,447.994,702.136z"/>
		<path fill="#303030" d="M608.164,764.339v-6.251c-1.987,2.182-5.354,4.088-10.095,5.724c-4.745,1.631-9.647,2.45-14.711,2.45
			c-14.357,0-25.653-4.551-33.889-13.653c-8.236-9.1-12.353-21.79-12.353-38.071c0-16.276,4.725-29.526,14.18-39.751
			c9.452-10.221,21.295-15.337,35.522-15.337c7.821,0,14.935,1.605,21.345,4.81v-41.244l24.034-5.769v147.093H608.164z
			 M608.164,685.984c-5.128-4.101-10.479-6.151-16.057-6.151c-9.614,0-17.016,2.933-22.208,8.797
			c-5.191,5.863-7.787,14.276-7.787,25.235c0,21.406,10.317,32.109,30.957,32.109c2.308,0,5.145-0.686,8.509-2.064
			c3.364-1.379,5.559-2.771,6.585-4.182V685.984z"/>
		<linearGradient id="SVGID_1_" gradientUnits="userSpaceOnUse" x1="863.3633" y1="599.3779" x2="863.3633" y2="758.7283">
			<stop  offset="0" style="stop-color:#0088B4"/>
			<stop  offset="1" style="stop-color:#00576E"/>
		</linearGradient>
		<path fill="url(#SVGID_1_)" d="M911.674,720.211h-73.548c0.448,8.206,3.269,14.584,8.46,19.131
			c5.192,4.551,12.177,6.826,20.958,6.826c10.962,0,19.292-2.852,24.998-8.558l9.325,18.364
			c-8.46,6.858-21.088,10.287-37.879,10.287c-15.705,0-28.121-4.6-37.255-13.798c-9.132-9.194-13.7-22.027-13.7-38.503
			c0-16.215,5.016-29.352,15.047-39.414c10.029-10.063,22.064-15.098,36.1-15.098c14.935,0,26.919,4.457,35.958,13.367
			c9.036,8.909,13.555,20.251,13.555,34.032C913.693,709.797,913.019,714.249,911.674,720.211z M838.991,702.136h50.57
			c-1.667-15.061-9.998-22.592-24.995-22.592C850.848,679.544,842.324,687.075,838.991,702.136z"/>
		<linearGradient id="SVGID_2_" gradientUnits="userSpaceOnUse" x1="954.7437" y1="599.3779" x2="954.7437" y2="758.7292">
			<stop  offset="0" style="stop-color:#0088B4"/>
			<stop  offset="1" style="stop-color:#00576E"/>
		</linearGradient>
		<path fill="url(#SVGID_2_)" d="M937.054,623.015l24.034-5.769v115.75c0,12.69,3.781,20.257,11.345,22.69
			c-3.718,7.053-10.063,10.575-19.036,10.575c-10.896,0-16.343-7.561-16.343-22.689V623.015z"/>
		<linearGradient id="SVGID_3_" gradientUnits="userSpaceOnUse" x1="1012.8125" y1="599.3779" x2="1012.8125" y2="758.7292">
			<stop  offset="0" style="stop-color:#0088B4"/>
			<stop  offset="1" style="stop-color:#00576E"/>
		</linearGradient>
		<path fill="url(#SVGID_3_)" d="M995.123,623.015l24.033-5.769v115.75c0,12.69,3.781,20.257,11.345,22.69
			c-3.718,7.053-10.063,10.575-19.036,10.575c-10.897,0-16.343-7.561-16.343-22.689V623.015z"/>
		<linearGradient id="SVGID_4_" gradientUnits="userSpaceOnUse" x1="777.6328" y1="600.8994" x2="777.6328" y2="761.0007">
			<stop  offset="0" style="stop-color:#0088B4"/>
			<stop  offset="1" style="stop-color:#00576E"/>
		</linearGradient>
		<polygon fill="url(#SVGID_4_)" points="781.754,665.501 761.112,720.651 749.862,749.354 757.719,767.501 766.468,767.501 
			805.404,665.501 		"/>
		<linearGradient id="SVGID_5_" gradientUnits="userSpaceOnUse" x1="680.873" y1="600.8994" x2="680.873" y2="761.0007">
			<stop  offset="0" style="stop-color:#0088B4"/>
			<stop  offset="1" style="stop-color:#00576E"/>
		</linearGradient>
		<polygon fill="url(#SVGID_5_)" points="699.553,726.024 678.884,665.501 653.601,665.501 692.44,767.501 701.284,767.501 
			708.146,751.065 699.594,726.044 		"/>
		<linearGradient id="SVGID_6_" gradientUnits="userSpaceOnUse" x1="729.4854" y1="601.707" x2="729.4854" y2="759.8087">
			<stop  offset="0" style="stop-color:#0088B4"/>
			<stop  offset="1" style="stop-color:#00576E"/>
		</linearGradient>
		<polygon fill="url(#SVGID_6_)" points="733.395,665.501 724.743,665.501 699.553,726.024 708.146,751.065 729.669,702.204 
			749.862,749.354 759.417,725.099 		"/>
	</g>
	<g>
		<path fill="#E2D600" d="M517.042,442.932l39.928-128.04l-64.443-206.654c-7.355-23.578-31.179-36.313-53.218-28.449
			c-22.036,7.868-33.945,33.352-26.593,56.935l104.368,334.698c0.011,0.045,0.031,0.086,0.048,0.13
			C514.298,462.584,514.023,452.61,517.042,442.932z"/>
		<path fill="#F6901B" d="M621.458,108.103c-0.016,0.045-0.036,0.09-0.048,0.135l-64.44,206.654l39.925,128.04
			c3.015,9.671,2.747,19.644-0.088,28.611c0.013-0.041,0.032-0.081,0.045-0.122l64.44-206.654l-39.927-128.044
			C618.349,127.047,618.622,117.075,621.458,108.103z"/>
		<linearGradient id="SVGID_7_" gradientUnits="userSpaceOnUse" x1="556.9688" y1="289.9712" x2="556.9688" y2="604.5045">
			<stop  offset="0" style="stop-color:#F5B32D"/>
			<stop  offset="1" style="stop-color:#EF8100"/>
		</linearGradient>
		<path fill="url(#SVGID_7_)" d="M596.917,442.949l-39.946-128.104l-39.949,128.104c-3.021,9.684-2.745,19.662,0.091,28.634
			c0.417,1.331,0.897,2.625,1.418,3.888c0.065,0.158,0.128,0.314,0.196,0.473c0.5,1.173,1.052,2.309,1.634,3.413
			c0.118,0.217,0.224,0.434,0.341,0.645c0.575,1.056,1.197,2.062,1.839,3.048c0.149,0.227,0.291,0.452,0.442,0.677
			c0.664,0.979,1.369,1.912,2.096,2.819c0.154,0.192,0.304,0.392,0.458,0.576c0.769,0.924,1.574,1.808,2.408,2.651
			c0.14,0.147,0.279,0.298,0.421,0.437c0.861,0.853,1.754,1.655,2.672,2.422c0.144,0.122,0.291,0.252,0.438,0.374
			c0.896,0.729,1.828,1.412,2.779,2.065c0.209,0.14,0.413,0.288,0.625,0.432c0.878,0.579,1.778,1.105,2.692,1.615
			c0.34,0.185,0.673,0.377,1.021,0.56c0.805,0.419,1.625,0.794,2.455,1.158c0.507,0.222,1.011,0.437,1.531,0.64
			c0.734,0.288,1.479,0.546,2.222,0.785c0.623,0.203,1.245,0.388,1.867,0.559c0.703,0.194,1.413,0.365,2.128,0.519
			c0.655,0.136,1.31,0.257,1.968,0.361c0.696,0.112,1.395,0.212,2.105,0.289c0.676,0.072,1.35,0.117,2.024,0.153
			c0.689,0.035,1.379,0.063,2.077,0.063c0.692,0,1.384-0.028,2.072-0.063c0.673-0.036,1.353-0.081,2.031-0.153
			c0.703-0.077,1.402-0.177,2.099-0.289c0.659-0.104,1.317-0.226,1.972-0.361c0.715-0.153,1.418-0.324,2.125-0.519
			c0.622-0.171,1.249-0.355,1.874-0.559c0.743-0.239,1.483-0.497,2.208-0.785c0.524-0.203,1.035-0.418,1.549-0.645
			c0.823-0.365,1.639-0.734,2.444-1.153c0.347-0.183,0.686-0.375,1.028-0.564c0.911-0.505,1.813-1.031,2.683-1.61
			c0.214-0.144,0.421-0.292,0.631-0.437c0.951-0.648,1.882-1.331,2.779-2.061c0.147-0.122,0.286-0.252,0.435-0.369
			c0.915-0.771,1.813-1.574,2.671-2.427c0.142-0.139,0.274-0.289,0.414-0.433c0.835-0.848,1.644-1.731,2.413-2.655
			c0.155-0.185,0.3-0.384,0.456-0.572c0.732-0.907,1.438-1.845,2.103-2.823c0.152-0.225,0.292-0.445,0.433-0.671
			c0.649-0.988,1.271-2.002,1.849-3.058c0.118-0.207,0.217-0.42,0.33-0.627c0.591-1.114,1.143-2.254,1.648-3.436
			c0.063-0.149,0.121-0.306,0.183-0.455c0.527-1.268,1.008-2.565,1.429-3.904C599.664,462.603,599.933,452.625,596.917,442.949z"/>
		<path fill="#009893" d="M725.691,442.932l39.928-128.04l-64.44-206.654c-0.014-0.041-0.032-0.081-0.047-0.122
			c2.836,8.963,3.103,18.941,0.09,28.607l-39.928,128.044l64.441,206.654c0.013,0.045,0.034,0.086,0.049,0.13
			C722.947,462.584,722.676,452.61,725.691,442.932z"/>
		<path fill="#F6901B" d="M701.152,108.083c-0.42-1.344-0.9-2.638-1.428-3.905c-0.061-0.153-0.122-0.306-0.183-0.455
			c-0.507-1.182-1.06-2.326-1.648-3.437c-0.109-0.207-0.211-0.418-0.329-0.626c-0.579-1.055-1.199-2.074-1.846-3.061
			c-0.146-0.221-0.284-0.446-0.435-0.667c-0.663-0.979-1.371-1.917-2.105-2.828c-0.155-0.188-0.298-0.383-0.454-0.572
			c-0.769-0.925-1.579-1.809-2.413-2.656c-0.14-0.144-0.273-0.293-0.415-0.433c-0.859-0.852-1.756-1.65-2.671-2.421
			c-0.15-0.122-0.289-0.252-0.435-0.37c-0.898-0.734-1.828-1.411-2.78-2.06c-0.21-0.144-0.417-0.297-0.631-0.438
			c-0.87-0.577-1.772-1.105-2.683-1.614c-0.343-0.19-0.681-0.384-1.028-0.559c-0.802-0.42-1.621-0.794-2.445-1.154
			c-0.512-0.226-1.024-0.447-1.549-0.649c-0.724-0.284-1.463-0.542-2.208-0.785c-0.626-0.198-1.25-0.388-1.873-0.559
			c-0.704-0.19-1.41-0.361-2.124-0.519c-0.656-0.135-1.314-0.252-1.971-0.361c-0.698-0.112-1.397-0.211-2.101-0.284
			c-0.679-0.073-1.355-0.122-2.029-0.154c-0.692-0.036-1.381-0.063-2.076-0.063c-0.694,0-1.384,0.027-2.074,0.063
			c-0.675,0.032-1.348,0.081-2.025,0.154c-0.708,0.073-1.409,0.171-2.105,0.284c-0.659,0.108-1.313,0.226-1.971,0.361
			c-0.712,0.158-1.422,0.329-2.125,0.524c-0.623,0.166-1.245,0.355-1.864,0.554c-0.747,0.244-1.49,0.501-2.226,0.789
			c-0.519,0.199-1.026,0.42-1.531,0.641c-0.827,0.361-1.649,0.739-2.457,1.159c-0.343,0.175-0.681,0.369-1.017,0.559
			c-0.915,0.509-1.817,1.037-2.694,1.614c-0.212,0.14-0.415,0.293-0.626,0.433c-0.95,0.649-1.879,1.331-2.783,2.065
			c-0.142,0.118-0.286,0.248-0.432,0.37c-0.918,0.771-1.813,1.569-2.672,2.421c-0.142,0.14-0.277,0.293-0.419,0.437
			c-0.832,0.848-1.641,1.727-2.41,2.652c-0.155,0.189-0.302,0.388-0.458,0.577c-0.73,0.906-1.434,1.844-2.099,2.818
			c-0.148,0.226-0.29,0.455-0.439,0.681c-0.645,0.983-1.268,1.993-1.842,3.044c-0.113,0.211-0.223,0.432-0.336,0.649
			c-0.581,1.104-1.136,2.241-1.636,3.413c-0.07,0.158-0.131,0.315-0.196,0.473c-0.521,1.258-1.001,2.552-1.418,3.883
			c-2.838,8.977-3.111,18.955-0.092,28.635l39.948,128.11l39.948-128.11C704.256,127.034,703.989,117.051,701.152,108.083z"/>
		<linearGradient id="SVGID_8_" gradientUnits="userSpaceOnUse" x1="723.519" y1="408.5244" x2="807.7188" y2="408.5244">
			<stop  offset="0" style="stop-color:#0088B4"/>
			<stop  offset="1" style="stop-color:#00576E"/>
		</linearGradient>
		<path fill="url(#SVGID_8_)" d="M805.567,442.949l-39.949-128.106L725.67,442.949c-3.016,9.685-2.746,19.663,0.093,28.635
			c0.417,1.33,0.897,2.625,1.416,3.888c0.065,0.158,0.131,0.314,0.198,0.473c0.5,1.173,1.052,2.309,1.635,3.413
			c0.115,0.217,0.225,0.434,0.338,0.645c0.575,1.056,1.197,2.062,1.842,3.048c0.148,0.227,0.289,0.452,0.442,0.677
			c0.663,0.979,1.366,1.912,2.099,2.819c0.153,0.192,0.3,0.392,0.453,0.576c0.773,0.925,1.578,1.808,2.41,2.651
			c0.143,0.148,0.277,0.299,0.424,0.437c0.857,0.853,1.752,1.656,2.669,2.422c0.147,0.122,0.29,0.252,0.44,0.374
			c0.895,0.73,1.826,1.412,2.774,2.065c0.212,0.14,0.417,0.288,0.627,0.433c0.877,0.578,1.778,1.104,2.691,1.614
			c0.339,0.185,0.675,0.378,1.02,0.561c0.807,0.418,1.63,0.793,2.458,1.157c0.505,0.222,1.012,0.438,1.533,0.641
			c0.733,0.288,1.477,0.545,2.223,0.784c0.621,0.203,1.242,0.388,1.865,0.559c0.701,0.194,1.411,0.366,2.126,0.52
			c0.659,0.136,1.312,0.257,1.97,0.36c0.697,0.112,1.398,0.212,2.104,0.289c0.677,0.072,1.352,0.117,2.026,0.153
			c0.689,0.035,1.379,0.063,2.074,0.063c0.692,0,1.385-0.028,2.077-0.063c0.674-0.036,1.351-0.081,2.029-0.153
			c0.701-0.077,1.402-0.177,2.102-0.289c0.655-0.104,1.313-0.225,1.972-0.36c0.712-0.153,1.416-0.325,2.119-0.52
			c0.627-0.171,1.249-0.355,1.876-0.559c0.742-0.239,1.481-0.496,2.207-0.784c0.523-0.203,1.037-0.419,1.551-0.646
			c0.82-0.365,1.641-0.734,2.444-1.152c0.348-0.183,0.688-0.376,1.028-0.565c0.911-0.505,1.813-1.031,2.683-1.609
			c0.214-0.145,0.421-0.293,0.631-0.438c0.951-0.648,1.88-1.33,2.777-2.061c0.151-0.122,0.287-0.252,0.436-0.369
			c0.917-0.771,1.817-1.574,2.674-2.427c0.142-0.138,0.275-0.288,0.415-0.433c0.834-0.848,1.644-1.73,2.413-2.655
			c0.155-0.185,0.3-0.384,0.453-0.572c0.735-0.907,1.444-1.845,2.106-2.823c0.153-0.225,0.289-0.445,0.435-0.671
			c0.647-0.988,1.267-2.002,1.847-3.058c0.114-0.207,0.218-0.42,0.329-0.627c0.588-1.114,1.141-2.254,1.648-3.436
			c0.061-0.149,0.122-0.306,0.185-0.455c0.525-1.268,1.003-2.566,1.424-3.904C808.315,462.604,808.581,452.626,805.567,442.949z"/>
		<linearGradient id="SVGID_9_" gradientUnits="userSpaceOnUse" x1="787.6782" y1="105.5146" x2="941.7888" y2="259.6252">
			<stop  offset="0" style="stop-color:#F5B32D"/>
			<stop  offset="1" style="stop-color:#EF8100"/>
		</linearGradient>
		<path fill="url(#SVGID_9_)" d="M939.934,173.203c0,46.709-37.858,84.568-84.568,84.568c-46.703,0-84.566-37.859-84.566-84.568
			c0-46.706,37.863-84.569,84.566-84.569C902.076,88.634,939.934,126.498,939.934,173.203z"/>
		<linearGradient id="SVGID_10_" gradientUnits="userSpaceOnUse" x1="149.0532" y1="408.8564" x2="225.9662" y2="482.6935">
			<stop  offset="0" style="stop-color:#42B286"/>
			<stop  offset="1" style="stop-color:#298388"/>
		</linearGradient>
		<path fill="url(#SVGID_10_)" d="M191.983,410.603c-3.092-0.018-5.733,0.17-7.873,0.592c-5.684,1.084-8.53,3.376-8.53,6.88
			c0,5.662,0.866,14.435,2.605,26.298c1.733,11.872,2.607,20.772,2.607,26.701c0,11.063,2.679,17.662,8.053,19.823
			c2.211,0.708,10.718,1.106,25.521,1.197l-16.551-81.224C195.737,410.718,193.756,410.612,191.983,410.603z"/>
		<linearGradient id="SVGID_11_" gradientUnits="userSpaceOnUse" x1="169.6475" y1="69.272" x2="380.3838" y2="509.2052">
			<stop  offset="0" style="stop-color:#67C9AF"/>
			<stop  offset="1" style="stop-color:#228BAC"/>
		</linearGradient>
		<path fill="url(#SVGID_11_)" d="M363.175,281.326c-10.11-8.092-34.105-21.167-72.007-39.243
			c-25.579-12.404-38.368-24.68-38.368-36.818c0-16.992,12.154-28.321,36.476-33.984c20.524-2.158,40.896-4.45,61.11-6.879
			c5.995-0.809,9.001-2.693,9.001-5.663c0-3.772-2.925-14.831-8.767-33.176c-5.848-18.335-9.791-29.266-11.841-32.771
			c-2.056-3.501-5.293-5.259-9.71-5.259c-49.271,0-90.008,10.114-122.221,30.344c-35.693,22.657-53.532,54.213-53.532,94.67
			c0,31.018,13.104,56.103,39.319,75.251c6.312,4.59,30.79,16.863,73.426,36.818c26.208,12.41,39.317,26.032,39.317,40.862
			c0,30.333-28.132,45.913-84.222,46.839c-1.771,0.031-3.48,0.093-5.312,0.093c0.313,0-4.422-0.406-14.211-1.216
			c-1.35-0.144-2.671-0.24-3.909-0.331l16.533,81.23c2.104,0.011,4.443,0.019,6.802,0.019c12.721,0,24.92-0.786,36.644-2.278
			c21.367-2.727,41.061-7.95,59.104-15.632c1.415-0.602,2.797-1.252,4.189-1.886c8.596-3.891,16.838-8.314,24.648-13.38
			c27.68-17.882,45.131-40.092,52.425-66.606c2.606-9.482,3.947-19.5,3.947-30.09C402.019,329.335,389.067,302.364,363.175,281.326z
			"/>
	</g>
</g>
</svg>
