<?xml version="1.0" encoding="utf-8"?>
<!-- Generator: Adobe Illustrator 16.0.0, SVG Export Plug-In . SVG Version: 6.00 Build 0)  -->
<!DOCTYPE svg PUBLIC "-//W3C//DTD SVG 1.1//EN" "http://www.w3.org/Graphics/SVG/1.1/DTD/svg11.dtd">
<svg version="1.1" id="圖層_1" xmlns="http://www.w3.org/2000/svg" xmlns:xlink="http://www.w3.org/1999/xlink" x="0px" y="0px"
	 width="1080px" height="194px" viewBox="0 0 1080 194" enable-background="new 0 0 1080 194" xml:space="preserve">
<g>
	<path fill="#E2D600" d="M154.053,150.728l13.086-41.965l-21.121-67.73c-2.411-7.729-10.219-11.901-17.442-9.324
		c-7.222,2.579-11.125,10.931-8.716,18.66l34.207,109.696c0.003,0.015,0.01,0.028,0.016,0.043
		C153.154,157.168,153.063,153.899,154.053,150.728z"/>
	<path fill="#F6901B" d="M188.275,40.987c-0.005,0.016-0.012,0.03-0.016,0.045l-21.12,67.73l13.085,41.965
		c0.988,3.169,0.9,6.438-0.029,9.377c0.004-0.014,0.01-0.026,0.015-0.04l21.12-67.73l-13.086-41.966
		C187.256,47.197,187.346,43.929,188.275,40.987z"/>
	<linearGradient id="SVGID_1_" gradientUnits="userSpaceOnUse" x1="167.1392" y1="100.5947" x2="167.1392" y2="203.6817">
		<stop  offset="0" style="stop-color:#F5B32D"/>
		<stop  offset="1" style="stop-color:#EF8100"/>
	</linearGradient>
	<path fill="url(#SVGID_1_)" d="M180.231,150.733l-13.092-41.986l-13.093,41.986c-0.99,3.174-0.9,6.443,0.03,9.384
		c0.137,0.437,0.294,0.86,0.465,1.274c0.021,0.052,0.042,0.104,0.064,0.155c0.164,0.384,0.345,0.757,0.535,1.118
		c0.039,0.071,0.073,0.143,0.112,0.212c0.188,0.346,0.393,0.676,0.603,0.999c0.049,0.074,0.095,0.147,0.145,0.222
		c0.217,0.32,0.449,0.626,0.687,0.924c0.05,0.063,0.1,0.128,0.15,0.188c0.252,0.303,0.516,0.593,0.789,0.869
		c0.046,0.049,0.091,0.098,0.138,0.144c0.282,0.279,0.575,0.542,0.875,0.793c0.047,0.04,0.095,0.083,0.144,0.123
		c0.293,0.239,0.599,0.463,0.911,0.677c0.069,0.046,0.136,0.095,0.205,0.142c0.288,0.189,0.583,0.362,0.882,0.529
		c0.111,0.061,0.22,0.124,0.334,0.184c0.264,0.137,0.533,0.26,0.805,0.38c0.166,0.072,0.332,0.143,0.502,0.209
		c0.24,0.095,0.484,0.179,0.728,0.258c0.204,0.066,0.408,0.127,0.612,0.183c0.23,0.063,0.463,0.12,0.698,0.17
		c0.215,0.045,0.429,0.084,0.645,0.119c0.228,0.036,0.457,0.069,0.69,0.095c0.222,0.023,0.443,0.038,0.664,0.05
		c0.226,0.012,0.452,0.021,0.681,0.021c0.227,0,0.454-0.009,0.679-0.021c0.221-0.012,0.443-0.026,0.666-0.05
		c0.23-0.025,0.459-0.059,0.688-0.095c0.216-0.035,0.432-0.074,0.646-0.119c0.234-0.05,0.465-0.106,0.696-0.17
		c0.204-0.056,0.409-0.116,0.614-0.183c0.244-0.079,0.486-0.163,0.724-0.258c0.172-0.066,0.339-0.137,0.508-0.211
		c0.27-0.12,0.537-0.241,0.801-0.378c0.114-0.06,0.225-0.123,0.337-0.186c0.299-0.165,0.594-0.338,0.879-0.527
		c0.07-0.047,0.138-0.096,0.207-0.144c0.312-0.212,0.617-0.436,0.911-0.675c0.048-0.04,0.094-0.083,0.143-0.121
		c0.3-0.253,0.594-0.516,0.876-0.795c0.046-0.046,0.09-0.095,0.136-0.143c0.273-0.277,0.539-0.567,0.791-0.87
		c0.051-0.061,0.098-0.126,0.149-0.188c0.24-0.297,0.472-0.604,0.689-0.925c0.05-0.074,0.096-0.146,0.142-0.22
		c0.213-0.324,0.417-0.656,0.606-1.003c0.039-0.067,0.071-0.138,0.108-0.205c0.194-0.365,0.375-0.739,0.541-1.126
		c0.021-0.049,0.04-0.101,0.06-0.149c0.173-0.415,0.33-0.841,0.468-1.279C181.132,157.174,181.22,153.904,180.231,150.733z"/>
	<path fill="#009893" d="M222.438,150.728l13.086-41.965l-21.12-67.73c-0.004-0.014-0.01-0.026-0.016-0.04
		c0.93,2.938,1.017,6.208,0.03,9.376l-13.086,41.966l21.121,67.73c0.004,0.015,0.011,0.028,0.016,0.043
		C221.538,157.168,221.449,153.899,222.438,150.728z"/>
	<path fill="#F6901B" d="M214.395,40.981c-0.138-0.44-0.295-0.864-0.468-1.279c-0.02-0.051-0.04-0.101-0.06-0.149
		c-0.167-0.388-0.348-0.763-0.541-1.127c-0.036-0.067-0.069-0.137-0.108-0.205c-0.189-0.346-0.393-0.68-0.605-1.003
		c-0.048-0.072-0.093-0.146-0.143-0.219c-0.217-0.32-0.449-0.628-0.69-0.927c-0.051-0.062-0.098-0.126-0.148-0.188
		c-0.252-0.303-0.518-0.593-0.791-0.87c-0.046-0.047-0.089-0.097-0.136-0.143c-0.282-0.279-0.576-0.54-0.876-0.793
		c-0.049-0.04-0.094-0.083-0.142-0.121c-0.294-0.241-0.599-0.463-0.911-0.676c-0.069-0.047-0.137-0.097-0.207-0.144
		c-0.285-0.188-0.581-0.362-0.879-0.528c-0.112-0.063-0.223-0.126-0.337-0.184c-0.263-0.138-0.531-0.26-0.801-0.378
		c-0.168-0.074-0.335-0.146-0.508-0.213c-0.237-0.094-0.479-0.178-0.724-0.258c-0.205-0.064-0.41-0.127-0.614-0.183
		c-0.23-0.063-0.462-0.118-0.696-0.171c-0.215-0.044-0.431-0.082-0.646-0.118c-0.229-0.036-0.458-0.068-0.688-0.093
		c-0.223-0.023-0.444-0.04-0.665-0.05c-0.227-0.012-0.453-0.021-0.681-0.021s-0.453,0.01-0.68,0.021
		c-0.221,0.01-0.441,0.026-0.664,0.05c-0.232,0.024-0.462,0.057-0.69,0.093c-0.216,0.036-0.43,0.074-0.646,0.118
		c-0.233,0.053-0.466,0.108-0.697,0.172c-0.204,0.055-0.408,0.117-0.611,0.182c-0.245,0.08-0.488,0.164-0.729,0.259
		c-0.17,0.065-0.336,0.138-0.501,0.21c-0.271,0.118-0.541,0.242-0.806,0.38c-0.112,0.058-0.223,0.121-0.333,0.184
		c-0.3,0.166-0.596,0.34-0.883,0.528c-0.07,0.047-0.136,0.097-0.205,0.143c-0.312,0.213-0.616,0.436-0.912,0.677
		c-0.047,0.038-0.094,0.081-0.142,0.121c-0.301,0.253-0.595,0.514-0.876,0.793c-0.046,0.046-0.091,0.097-0.138,0.144
		c-0.272,0.278-0.538,0.566-0.79,0.869c-0.051,0.062-0.099,0.127-0.15,0.189c-0.239,0.297-0.47,0.604-0.688,0.923
		c-0.048,0.074-0.095,0.149-0.144,0.224c-0.211,0.322-0.416,0.653-0.604,0.997c-0.037,0.07-0.073,0.143-0.11,0.213
		c-0.19,0.362-0.373,0.734-0.536,1.119c-0.023,0.052-0.043,0.104-0.064,0.154c-0.171,0.413-0.328,0.837-0.465,1.273
		c-0.93,2.942-1.02,6.212-0.03,9.385l13.093,41.987l13.093-41.987C215.412,47.192,215.325,43.921,214.395,40.981z"/>
	<linearGradient id="SVGID_2_" gradientUnits="userSpaceOnUse" x1="221.7256" y1="139.4502" x2="249.3218" y2="139.4502">
		<stop  offset="0" style="stop-color:#0088B4"/>
		<stop  offset="1" style="stop-color:#00576E"/>
	</linearGradient>
	<path fill="url(#SVGID_2_)" d="M248.617,150.733l-13.093-41.987l-13.093,41.987c-0.989,3.174-0.9,6.444,0.03,9.385
		c0.137,0.436,0.294,0.86,0.464,1.274c0.021,0.052,0.043,0.103,0.065,0.154c0.164,0.385,0.345,0.757,0.536,1.119
		c0.038,0.07,0.074,0.142,0.111,0.211c0.188,0.346,0.392,0.676,0.604,0.999c0.048,0.074,0.094,0.148,0.145,0.222
		c0.217,0.32,0.448,0.627,0.688,0.924c0.05,0.063,0.098,0.129,0.148,0.189c0.253,0.303,0.517,0.592,0.79,0.868
		c0.047,0.049,0.091,0.099,0.139,0.144c0.281,0.279,0.574,0.543,0.875,0.794c0.048,0.04,0.095,0.082,0.144,0.122
		c0.293,0.239,0.599,0.463,0.91,0.677c0.069,0.046,0.136,0.095,0.206,0.143c0.287,0.189,0.583,0.361,0.882,0.528
		c0.111,0.061,0.221,0.124,0.334,0.185c0.265,0.137,0.534,0.26,0.806,0.379c0.166,0.072,0.332,0.144,0.502,0.21
		c0.24,0.095,0.484,0.179,0.728,0.257c0.204,0.066,0.407,0.127,0.611,0.184c0.229,0.063,0.462,0.119,0.697,0.17
		c0.216,0.044,0.43,0.084,0.646,0.118c0.229,0.037,0.458,0.069,0.689,0.095c0.222,0.023,0.443,0.038,0.664,0.05
		c0.226,0.012,0.452,0.021,0.68,0.021c0.227,0,0.454-0.01,0.681-0.021c0.221-0.012,0.442-0.026,0.665-0.05
		c0.229-0.025,0.459-0.058,0.688-0.095c0.215-0.034,0.431-0.074,0.646-0.118c0.233-0.051,0.464-0.106,0.695-0.17
		c0.206-0.057,0.409-0.117,0.615-0.184c0.243-0.078,0.485-0.162,0.723-0.257c0.171-0.066,0.34-0.138,0.508-0.212
		c0.269-0.119,0.538-0.24,0.801-0.377c0.114-0.061,0.226-0.124,0.337-0.186c0.298-0.166,0.594-0.338,0.879-0.527
		c0.07-0.048,0.138-0.097,0.207-0.144c0.312-0.213,0.616-0.437,0.91-0.676c0.05-0.04,0.094-0.082,0.143-0.121
		c0.301-0.252,0.595-0.516,0.876-0.795c0.047-0.045,0.09-0.095,0.136-0.142c0.273-0.278,0.539-0.567,0.791-0.87
		c0.051-0.061,0.098-0.126,0.148-0.188c0.241-0.298,0.473-0.605,0.69-0.926c0.05-0.073,0.095-0.146,0.143-0.22
		c0.212-0.324,0.415-0.656,0.605-1.002c0.038-0.068,0.071-0.138,0.108-0.206c0.192-0.365,0.374-0.738,0.54-1.126
		c0.02-0.049,0.04-0.1,0.061-0.149c0.172-0.415,0.329-0.841,0.467-1.279C249.518,157.175,249.604,153.904,248.617,150.733z"/>
	<linearGradient id="SVGID_3_" gradientUnits="userSpaceOnUse" x1="242.7539" y1="40.1396" x2="293.2631" y2="90.6488">
		<stop  offset="0" style="stop-color:#F5B32D"/>
		<stop  offset="1" style="stop-color:#EF8100"/>
	</linearGradient>
	<circle fill="url(#SVGID_3_)" cx="264.938" cy="62.324" r="27.717"/>
	<linearGradient id="SVGID_4_" gradientUnits="userSpaceOnUse" x1="33.4458" y1="139.5586" x2="58.6538" y2="163.7585">
		<stop  offset="0" style="stop-color:#42B286"/>
		<stop  offset="1" style="stop-color:#298388"/>
	</linearGradient>
	<path fill="url(#SVGID_4_)" d="M47.516,140.132c-1.014-0.006-1.879,0.056-2.58,0.193c-1.863,0.355-2.796,1.107-2.796,2.256
		c0,1.855,0.284,4.73,0.854,8.618c0.568,3.892,0.854,6.809,0.854,8.752c0,3.625,0.878,5.788,2.639,6.497
		c0.725,0.231,3.513,0.362,8.365,0.392l-5.424-26.621C48.746,140.169,48.097,140.135,47.516,140.132z"/>
	<linearGradient id="SVGID_5_" gradientUnits="userSpaceOnUse" x1="40.1953" y1="28.2617" x2="109.2631" y2="172.4476">
		<stop  offset="0" style="stop-color:#67C9AF"/>
		<stop  offset="1" style="stop-color:#228BAC"/>
	</linearGradient>
	<path fill="url(#SVGID_5_)" d="M103.624,97.761c-3.313-2.651-11.178-6.937-23.6-12.861c-8.383-4.065-12.575-8.089-12.575-12.067
		c0-5.568,3.983-9.282,11.955-11.138c6.727-0.708,13.403-1.459,20.029-2.255c1.965-0.265,2.95-0.883,2.95-1.855
		c0-1.236-0.958-4.861-2.873-10.873c-1.917-6.01-3.209-9.592-3.881-10.741c-0.674-1.147-1.734-1.724-3.183-1.724
		c-16.148,0-29.5,3.315-40.057,9.945c-11.699,7.426-17.545,17.768-17.545,31.027c0,10.167,4.295,18.388,12.887,24.664
		c2.069,1.504,10.092,5.526,24.065,12.066c8.59,4.067,12.886,8.532,12.886,13.394c0,9.941-9.22,15.047-27.604,15.351
		c-0.581,0.011-1.141,0.031-1.741,0.031c0.103,0-1.449-0.134-4.658-0.399c-0.442-0.047-0.875-0.078-1.281-0.108l5.418,26.623
		c0.69,0.004,1.457,0.007,2.229,0.007c4.169,0,8.168-0.258,12.01-0.747c7.003-0.894,13.458-2.605,19.372-5.123
		c0.464-0.197,0.917-0.41,1.373-0.618c2.817-1.275,5.519-2.726,8.079-4.386c9.072-5.86,14.792-13.14,17.182-21.83
		c0.854-3.107,1.294-6.391,1.294-9.861C116.354,113.496,112.109,104.656,103.624,97.761z"/>
</g>
<g>
	<path fill="#303030" d="M368.943,147.508l6.306-15.307c6.745,4.729,13.38,7.095,19.906,7.095c10.03,0,15.044-3.502,15.044-10.511
		c0-3.286-1.182-6.415-3.547-9.396c-2.365-2.978-7.238-6.316-14.616-10.018c-7.382-3.701-12.352-6.744-14.914-9.131
		c-2.563-2.387-4.533-5.223-5.912-8.509c-1.38-3.285-2.07-6.92-2.07-10.904c0-7.445,2.728-13.62,8.18-18.53
		c5.453-4.901,12.45-7.356,20.989-7.356c11.125,0,19.293,2.083,24.506,6.243l-5.189,14.717c-6.002-4.293-12.331-6.438-18.987-6.438
		c-3.941,0-6.997,1.04-9.164,3.119c-2.168,2.081-3.252,4.785-3.252,8.114c0,5.519,6.11,11.255,18.329,17.211
		c6.438,3.153,11.081,6.058,13.927,8.705c2.847,2.651,5.015,5.737,6.504,9.265c1.489,3.525,2.234,7.454,2.234,11.791
		c0,7.796-3.078,14.214-9.231,19.249c-6.153,5.039-14.398,7.554-24.734,7.554C384.272,154.471,376.171,152.152,368.943,147.508z"/>
	<path fill="#303030" d="M436.74,117.487c0-10.733,3.099-19.469,9.297-26.213c6.196-6.745,14.376-10.12,24.538-10.12
		c10.687,0,18.986,3.244,24.899,9.725c5.913,6.482,8.869,15.352,8.869,26.608c0,11.211-3.012,20.123-9.034,26.734
		c-6.021,6.615-14.266,9.922-24.733,9.922c-10.688,0-18.998-3.341-24.932-10.02C439.708,137.447,436.74,128.565,436.74,117.487z
		 M453.822,117.487c0,15.502,5.583,23.255,16.753,23.255c5.124,0,9.186-2.014,12.187-6.044c3-4.029,4.499-9.766,4.499-17.211
		c0-15.287-5.561-22.931-16.686-22.931c-5.125,0-9.199,2.017-12.22,6.045C455.333,104.633,453.822,110.259,453.822,117.487z"/>
	<path fill="#303030" d="M520.307,56.257l16.423-3.941v79.097c0,8.672,2.584,13.842,7.753,15.505
		c-2.541,4.819-6.876,7.227-13.008,7.227c-7.446,0-11.168-5.166-11.168-15.505V56.257z"/>
	<path fill="#303030" d="M586.331,154.144h-5.912L548.621,82.47h18.001l16.819,42.964l18.065-42.964h17.41L586.331,154.144z"/>
	<path fill="#303030" d="M690.919,122.676h-50.258c0.306,5.607,2.234,9.966,5.781,13.072c3.548,3.11,8.321,4.665,14.321,4.665
		c7.491,0,13.183-1.949,17.082-5.848l6.373,12.549c-5.781,4.687-14.41,7.029-25.884,7.029c-10.732,0-19.216-3.143-25.458-9.429
		c-6.241-6.282-9.362-15.052-9.362-26.311c0-11.08,3.427-20.057,10.283-26.934c6.853-6.876,15.077-10.316,24.668-10.316
		c10.205,0,18.396,3.046,24.571,9.135c6.175,6.088,9.264,13.838,9.264,23.255C692.299,115.559,691.838,118.602,690.919,122.676z
		 M641.252,110.324h34.557c-1.139-10.292-6.832-15.438-17.08-15.438C649.354,94.886,643.529,100.032,641.252,110.324z"/>
	<path fill="#303030" d="M750.703,152.83v-4.271c-1.358,1.49-3.658,2.793-6.898,3.911c-3.243,1.114-6.593,1.674-10.053,1.674
		c-9.811,0-17.53-3.109-23.158-9.33c-5.628-6.218-8.441-14.89-8.441-26.016c0-11.122,3.229-20.177,9.689-27.163
		c6.459-6.984,14.552-10.48,24.274-10.48c5.345,0,10.206,1.097,14.586,3.286V56.257l16.423-3.941V152.83H750.703z M750.703,99.287
		c-3.504-2.803-7.161-4.204-10.972-4.204c-6.57,0-11.628,2.004-15.175,6.012c-3.547,4.007-5.321,9.756-5.321,17.244
		c0,14.628,7.05,21.941,21.154,21.941c1.577,0,3.515-0.468,5.814-1.41c2.298-0.942,3.798-1.894,4.5-2.857V99.287z"/>
	<linearGradient id="SVGID_6_" gradientUnits="userSpaceOnUse" x1="925.0913" y1="40.1055" x2="925.0913" y2="148.9959">
		<stop  offset="0" style="stop-color:#0088B4"/>
		<stop  offset="1" style="stop-color:#00576E"/>
	</linearGradient>
	<path fill="url(#SVGID_6_)" d="M958.104,122.676h-50.259c0.306,5.607,2.234,9.966,5.781,13.072
		c3.548,3.11,8.321,4.665,14.322,4.665c7.491,0,13.183-1.949,17.082-5.848l6.373,12.549c-5.782,4.687-14.411,7.029-25.884,7.029
		c-10.732,0-19.216-3.143-25.458-9.429c-6.24-6.282-9.361-15.052-9.361-26.311c0-11.08,3.428-20.057,10.282-26.934
		c6.853-6.876,15.077-10.316,24.668-10.316c10.206,0,18.396,3.046,24.571,9.135c6.175,6.088,9.263,13.838,9.263,23.255
		C959.484,115.559,959.023,118.602,958.104,122.676z M908.437,110.324h34.557c-1.14-10.292-6.832-15.438-17.08-15.438
		C916.539,94.886,910.714,100.032,908.437,110.324z"/>
	<linearGradient id="SVGID_7_" gradientUnits="userSpaceOnUse" x1="987.5356" y1="40.1055" x2="987.5356" y2="148.9964">
		<stop  offset="0" style="stop-color:#0088B4"/>
		<stop  offset="1" style="stop-color:#00576E"/>
	</linearGradient>
	<path fill="url(#SVGID_7_)" d="M975.448,56.257l16.423-3.941v79.097c0,8.672,2.583,13.842,7.753,15.505
		c-2.541,4.819-6.877,7.227-13.008,7.227c-7.445,0-11.167-5.166-11.167-15.505V56.257z"/>
	<linearGradient id="SVGID_8_" gradientUnits="userSpaceOnUse" x1="1027.2163" y1="40.1055" x2="1027.2163" y2="148.9964">
		<stop  offset="0" style="stop-color:#0088B4"/>
		<stop  offset="1" style="stop-color:#00576E"/>
	</linearGradient>
	<path fill="url(#SVGID_8_)" d="M1015.128,56.257l16.423-3.941v79.097c0,8.672,2.583,13.842,7.753,15.505
		c-2.541,4.819-6.877,7.227-13.008,7.227c-7.447,0-11.168-5.166-11.168-15.505V56.257z"/>
	<linearGradient id="SVGID_9_" gradientUnits="userSpaceOnUse" x1="866.5083" y1="42.2988" x2="866.5083" y2="150.6026">
		<stop  offset="0" style="stop-color:#0088B4"/>
		<stop  offset="1" style="stop-color:#00576E"/>
	</linearGradient>
	<polygon fill="url(#SVGID_9_)" points="869.324,86 855.219,123.332 847.531,142.773 852.9,155 858.879,155 885.485,86 	"/>
	<linearGradient id="SVGID_10_" gradientUnits="userSpaceOnUse" x1="800.3882" y1="42.2988" x2="800.3882" y2="150.6026">
		<stop  offset="0" style="stop-color:#0088B4"/>
		<stop  offset="1" style="stop-color:#00576E"/>
	</linearGradient>
	<polygon fill="url(#SVGID_10_)" points="813.153,127.002 799.029,86 781.751,86 808.292,155 814.336,155 819.024,143.766 
		813.181,126.842 	"/>
	<linearGradient id="SVGID_11_" gradientUnits="userSpaceOnUse" x1="833.6069" y1="42.8047" x2="833.6069" y2="149.8569">
		<stop  offset="0" style="stop-color:#0088B4"/>
		<stop  offset="1" style="stop-color:#00576E"/>
	</linearGradient>
	<polygon fill="url(#SVGID_11_)" points="836.278,86 830.366,86 813.153,127.002 819.024,143.937 833.733,110.459 847.531,142.635 
		854.061,126.393 	"/>
</g>
<path fill="#63A042" d="M575.433,135.069h0.445c-0.149,0-0.296-0.005-0.445-0.005V135.069z"/>
</svg>
