<?xml version="1.0" encoding="utf-8"?>
<!-- Generator: Adobe Illustrator 16.0.0, SVG Export Plug-In . SVG Version: 6.00 Build 0)  -->
<!DOCTYPE svg PUBLIC "-//W3C//DTD SVG 1.1//EN" "http://www.w3.org/Graphics/SVG/1.1/DTD/svg11.dtd">
<svg version="1.1" id="圖層_1" xmlns="http://www.w3.org/2000/svg" xmlns:xlink="http://www.w3.org/1999/xlink" x="0px" y="0px"
	 width="1080px" height="138px" viewBox="0 0 1080 138" enable-background="new 0 0 1080 138" xml:space="preserve">
<g>
	<path fill="#303030" d="M269.715,96.978c0,1.313-0.449,2.415-1.346,3.307c-0.897,0.894-1.961,1.339-3.191,1.339h-11.074
		c-0.411,0-0.615,0.21-0.615,0.63v2.599c0,0.893-0.308,1.653-0.923,2.283s-1.372,0.945-2.269,0.945
		c-0.898,0-1.653-0.315-2.269-0.945s-0.923-1.391-0.923-2.283V86.033c0-0.052-0.039-0.092-0.116-0.118
		c-0.077-0.026-0.142-0.013-0.192,0.039c-0.308,0.63-0.642,1.234-1,1.811c-0.513,0.788-1.218,1.155-2.115,1.103
		c-0.897-0.052-1.576-0.472-2.038-1.26c-0.667-1.049-1-2.204-1-3.464c0-1.103,0.256-2.126,0.769-3.071
		c3.999-7.086,6.946-17.27,8.844-30.551c0.05-0.366-0.104-0.551-0.461-0.551h-5.537c-0.922,0-1.718-0.341-2.384-1.023
		c-0.667-0.682-1-1.496-1-2.441c0-0.944,0.333-1.744,1-2.401c0.666-0.655,1.461-0.984,2.384-0.984h23.686
		c0.923,0,1.704,0.329,2.345,0.984c0.641,0.657,0.961,1.457,0.961,2.401c0,0.945-0.321,1.76-0.961,2.441
		c-0.642,0.683-1.422,1.023-2.345,1.023h-9.844c-0.411,0-0.642,0.185-0.692,0.551c-0.975,6.09-2.051,11.392-3.23,15.905
		c-0.052,0.158-0.026,0.289,0.077,0.394c0.102,0.106,0.23,0.158,0.384,0.158h10.536c1.23,0,2.294,0.46,3.191,1.378
		c0.896,0.919,1.346,2.008,1.346,3.268V96.978z M262.487,94.931c0.41,0,0.615-0.184,0.615-0.552V74.222
		c0-0.419-0.206-0.63-0.615-0.63h-8.382c-0.411,0-0.615,0.211-0.615,0.63v20.157c0,0.368,0.204,0.552,0.615,0.552H262.487z
		 M280.174,100.206c1.333-1.154,2.717-1.732,4.153-1.732c0.615,0,1.23,0.132,1.846,0.394c0.819,0.264,1.346,0.814,1.576,1.653
		c0.231,0.841,0.039,1.575-0.577,2.205c-3.538,3.464-7.742,6.561-12.612,9.291c-0.667,0.366-1.359,0.551-2.076,0.551
		c-0.308,0-0.615-0.026-0.923-0.078c-1.026-0.211-1.922-0.709-2.691-1.496c-0.513-0.525-0.769-1.103-0.769-1.732
		c0-0.157,0.025-0.315,0.077-0.473c0.154-0.84,0.615-1.444,1.384-1.811C273.816,104.93,277.354,102.674,280.174,100.206z
		 M308.781,92.883c0,1.313-0.449,2.415-1.346,3.308c-0.897,0.893-1.961,1.338-3.191,1.338h-3.307c-0.104,0-0.167,0.054-0.192,0.158
		c-0.026,0.105-0.013,0.185,0.039,0.236c3.845,2.887,7.254,5.905,10.228,9.055c0.563,0.577,0.846,1.232,0.846,1.968
		c0,0.158-0.026,0.315-0.077,0.473c-0.103,0.893-0.564,1.601-1.384,2.126c-0.615,0.42-1.282,0.63-1.999,0.63
		c-0.206,0-0.437-0.027-0.692-0.078c-0.923-0.158-1.718-0.604-2.384-1.339c-1.949-2.153-4.281-4.461-6.998-6.929
		c-0.769-0.682-1.154-1.522-1.154-2.52c0-1.261,0.512-2.231,1.538-2.914l0.923-0.551c0.051-0.052,0.064-0.118,0.039-0.197
		c-0.026-0.078-0.065-0.118-0.115-0.118H279.79c-1.282,0-2.359-0.445-3.23-1.338c-0.873-0.893-1.307-1.994-1.307-3.308V60.915
		c0-1.312,0.435-2.413,1.307-3.307c0.871-0.892,1.948-1.339,3.23-1.339h6.459c0.358,0,0.589-0.209,0.692-0.63
		c0.308-1.837,0.589-3.647,0.846-5.433c0.102-0.367-0.052-0.552-0.461-0.552h-11.074c-0.923,0-1.705-0.341-2.346-1.023
		c-0.642-0.682-0.961-1.496-0.961-2.44c0-0.945,0.319-1.745,0.961-2.401c0.641-0.656,1.423-0.984,2.346-0.984h31.837
		c0.922,0,1.717,0.328,2.384,0.984c0.666,0.656,1,1.456,1,2.401c0,0.944-0.334,1.759-1,2.44c-0.667,0.683-1.461,1.023-2.384,1.023
		h-11.766c-0.359,0-0.59,0.185-0.692,0.552c-0.206,0.63-0.719,2.468-1.538,5.512c0,0.105,0.038,0.224,0.115,0.354
		c0.077,0.131,0.192,0.196,0.346,0.196h9.689c1.23,0,2.294,0.447,3.191,1.339c0.896,0.894,1.346,1.995,1.346,3.307V92.883z
		 M282.558,62.333c-0.359,0-0.539,0.185-0.539,0.551v4.725c0,0.367,0.179,0.551,0.539,0.551h18.61c0.41,0,0.615-0.184,0.615-0.551
		v-4.725c0-0.366-0.206-0.551-0.615-0.551H282.558z M282.558,73.828c-0.359,0-0.539,0.211-0.539,0.63v4.725
		c0,0.421,0.179,0.63,0.539,0.63h18.61c0.41,0,0.615-0.209,0.615-0.63v-4.725c0-0.419-0.206-0.63-0.615-0.63H282.558z
		 M282.558,85.481c-0.359,0-0.539,0.185-0.539,0.552v4.882c0,0.367,0.179,0.551,0.539,0.551h18.61c0.41,0,0.615-0.184,0.615-0.551
		v-4.882c0-0.367-0.206-0.552-0.615-0.552H282.558z"/>
	<path fill="#303030" d="M350.405,92.411c-0.411,0-0.615,0.185-0.615,0.551v4.33c0,0.368,0.204,0.552,0.615,0.552h4.229
		c0.769,0,1.423,0.289,1.961,0.866c0.539,0.578,0.808,1.26,0.808,2.047s-0.269,1.471-0.808,2.047
		c-0.538,0.579-1.192,0.866-1.961,0.866h-4.229c-0.411,0-0.615,0.185-0.615,0.552v6.063c0,0.839-0.295,1.575-0.884,2.205
		c-0.59,0.63-1.308,0.944-2.153,0.944s-1.577-0.314-2.192-0.944s-0.923-1.366-0.923-2.205v-6.063c0-0.367-0.18-0.552-0.538-0.552
		h-13.842c-0.769,0-1.436-0.287-2-0.866c-0.564-0.576-0.846-1.26-0.846-2.047s0.281-1.469,0.846-2.047
		c0.563-0.577,1.23-0.866,2-0.866h0.538c0.256,0,0.385-0.131,0.385-0.394v-6.063c0-1.312,0.448-2.413,1.346-3.307
		c0.896-0.892,1.961-1.339,3.191-1.339h8.382c0.358,0,0.538-0.209,0.538-0.63v-2.913c0-0.366-0.18-0.551-0.538-0.551h-8.229
		c-1.23,0-2.295-0.459-3.191-1.378c-0.897-0.918-1.346-2.008-1.346-3.268v-6.93c0-1.312,0.448-2.413,1.346-3.307
		c0.896-0.892,1.961-1.339,3.191-1.339h15.688c1.23,0,2.294,0.447,3.191,1.339c0.896,0.894,1.346,1.995,1.346,3.307v6.93
		c0,1.26-0.449,2.35-1.346,3.268c-0.897,0.919-1.961,1.378-3.191,1.378h-0.154c-0.411,0-0.615,0.185-0.615,0.551v2.913
		c0,0.421,0.204,0.63,0.615,0.63h3.614c0.769,0,1.423,0.276,1.961,0.827c0.539,0.551,0.808,1.221,0.808,2.008
		s-0.269,1.457-0.808,2.008c-0.538,0.551-1.192,0.827-1.961,0.827H350.405z M354.942,57.136c0.769,0,1.435,0.275,2,0.827
		c0.563,0.551,0.846,1.233,0.846,2.047c0,0.814-0.282,1.496-0.846,2.047c-0.565,0.552-1.23,0.827-2,0.827h-25.531
		c-0.769,0-1.423-0.275-1.961-0.827c-0.539-0.551-0.808-1.232-0.808-2.047c0-0.813,0.269-1.496,0.808-2.047
		c0.538-0.552,1.192-0.827,1.961-0.827h4.999c0.41,0,0.641-0.184,0.692-0.551c0.512-2.099,0.846-3.569,1-4.409
		c0.102-0.42-0.052-0.63-0.461-0.63h-3.23c-0.769,0-1.436-0.276-2-0.827c-0.564-0.551-0.846-1.232-0.846-2.047
		c0-0.813,0.281-1.496,0.846-2.048c0.564-0.551,1.23-0.826,2-0.826h4.383c0.358,0,0.589-0.209,0.692-0.63
		c0.154-1.05,0.308-1.916,0.461-2.599c0.154-0.892,0.589-1.601,1.307-2.126c0.563-0.473,1.23-0.709,2-0.709c0.102,0,0.231,0,0.385,0
		c0.819,0.106,1.486,0.5,1.999,1.182c0.512,0.683,0.692,1.47,0.539,2.362c-0.154,0.63-0.282,1.26-0.385,1.89
		c-0.103,0.421,0.051,0.63,0.461,0.63h5.152c1.281,0,2.358,0.446,3.23,1.338c0.871,0.894,1.308,1.996,1.308,3.308v6.299
		c0,0.264,0.154,0.394,0.461,0.394H354.942z M336.255,97.292c0,0.368,0.179,0.552,0.538,0.552h6.306
		c0.358,0,0.538-0.184,0.538-0.552v-4.33c0-0.366-0.18-0.551-0.538-0.551h-6.306c-0.359,0-0.538,0.185-0.538,0.551V97.292z
		 M336.947,71.388c-0.411,0-0.615,0.21-0.615,0.63v5.039c0,0.368,0.205,0.551,0.615,0.551h11.305c0.41,0,0.615-0.183,0.615-0.551
		v-5.039c0-0.42-0.206-0.63-0.615-0.63H336.947z M347.944,52.176c0-0.42-0.206-0.63-0.615-0.63h-4.307
		c-0.359,0-0.59,0.21-0.692,0.63c-0.308,1.574-0.615,3.045-0.923,4.409c-0.052,0.367,0.102,0.551,0.461,0.551h5.46
		c0.41,0,0.615-0.184,0.615-0.551V52.176z M397.93,73.514c0.563,0.578,0.846,1.273,0.846,2.086c0,0.814-0.283,1.496-0.846,2.048
		c-0.564,0.551-1.23,0.826-2,0.826h-3.46c-0.359,0-0.538,0.211-0.538,0.63v5.512c0,0.315,0.154,0.473,0.461,0.473h1.077
		c0.819,0,1.5,0.289,2.038,0.866c0.539,0.578,0.808,1.273,0.808,2.087c0,0.814-0.269,1.496-0.808,2.047
		c-0.538,0.551-1.218,0.827-2.038,0.827h-12.304c-0.411,0-0.615,0.21-0.615,0.63v4.487c0,0.421,0.204,0.63,0.615,0.63h13.458
		c0.769,0,1.448,0.29,2.038,0.866c0.588,0.578,0.884,1.273,0.884,2.087c0,0.814-0.296,1.523-0.884,2.126
		c-0.59,0.604-1.269,0.905-2.038,0.905h-13.458c-0.411,0-0.615,0.185-0.615,0.552v7.086c0,0.839-0.296,1.575-0.885,2.205
		c-0.59,0.63-1.307,0.944-2.153,0.944c-0.846,0-1.564-0.314-2.153-0.944c-0.59-0.63-0.884-1.366-0.884-2.205v-7.086
		c0-0.367-0.206-0.552-0.615-0.552h-12.228c-0.821,0-1.513-0.301-2.076-0.905c-0.565-0.603-0.846-1.312-0.846-2.126
		c0-0.813,0.281-1.509,0.846-2.087c0.563-0.576,1.255-0.866,2.076-0.866h12.228c0.41,0,0.615-0.209,0.615-0.63v-4.487
		c0-0.42-0.206-0.63-0.615-0.63h-12.228c-0.821,0-1.5-0.276-2.038-0.827c-0.538-0.551-0.807-1.232-0.807-2.047
		c0-0.813,0.269-1.509,0.807-2.087c0.539-0.577,1.217-0.866,2.038-0.866h1.23c0.358,0,0.538-0.157,0.538-0.473v-5.512
		c0-0.419-0.18-0.63-0.538-0.63h-3.153c-0.821,0-1.513-0.275-2.077-0.826c-0.564-0.552-0.846-1.233-0.846-2.048
		c0-0.813,0.281-1.508,0.846-2.086c0.564-0.577,1.256-0.866,2.077-0.866h3.153c0.358,0,0.538-0.209,0.538-0.63v-5.433
		c0-0.315-0.154-0.473-0.461-0.473h-1.23c-0.769,0-1.423-0.288-1.961-0.866c-0.538-0.577-0.807-1.26-0.807-2.047
		c0-0.788,0.269-1.457,0.807-2.009c0.539-0.551,1.192-0.826,1.961-0.826H393.7c0.769,0,1.423,0.275,1.961,0.826
		c0.539,0.552,0.808,1.221,0.808,2.009c0,0.787-0.269,1.47-0.808,2.047c-0.538,0.578-1.192,0.866-1.961,0.866h-1.23
		c-0.359,0-0.538,0.157-0.538,0.473v5.433c0,0.421,0.179,0.63,0.538,0.63h3.46C396.699,72.647,397.365,72.937,397.93,73.514z
		 M372.207,57.766c-0.59,0.63-1.321,0.945-2.192,0.945c-0.873,0-1.615-0.315-2.23-0.945s-0.923-1.39-0.923-2.283v-2.677
		c0-0.367-0.18-0.552-0.539-0.552h-5.69c-0.821,0-1.5-0.288-2.038-0.866c-0.538-0.577-0.808-1.271-0.808-2.086
		c0-0.813,0.27-1.509,0.808-2.087c0.538-0.577,1.217-0.866,2.038-0.866h5.69c0.358,0,0.539-0.209,0.539-0.63v-3.07
		c0-0.84,0.308-1.575,0.923-2.205s1.357-0.945,2.23-0.945c0.871,0,1.602,0.315,2.192,0.945c0.588,0.63,0.884,1.365,0.884,2.205v3.07
		c0,0.421,0.204,0.63,0.615,0.63h7.613c0.41,0,0.615-0.209,0.615-0.63v-3.07c0-0.84,0.307-1.575,0.922-2.205
		s1.346-0.945,2.192-0.945s1.577,0.315,2.192,0.945s0.923,1.365,0.923,2.205v3.07c0,0.421,0.179,0.63,0.538,0.63h6.537
		c0.819,0,1.512,0.289,2.076,0.866c0.563,0.578,0.846,1.273,0.846,2.087c0,0.814-0.283,1.509-0.846,2.086
		c-0.564,0.578-1.257,0.866-2.076,0.866h-6.537c-0.359,0-0.538,0.185-0.538,0.552v2.677c0,0.894-0.308,1.653-0.923,2.283
		s-1.346,0.945-2.192,0.945s-1.577-0.315-2.192-0.945s-0.922-1.39-0.922-2.283v-2.677c0-0.367-0.206-0.552-0.615-0.552h-7.613
		c-0.411,0-0.615,0.185-0.615,0.552v2.677C373.091,56.376,372.795,57.136,372.207,57.766z M369.63,66.112
		c-0.359,0-0.538,0.185-0.538,0.551v5.354c0,0.421,0.179,0.63,0.538,0.63h4.23c0.41,0,0.615-0.209,0.615-0.63v-5.354
		c0-0.366-0.206-0.551-0.615-0.551H369.63z M369.092,84.537c0,0.367,0.179,0.551,0.538,0.551h4.23c0.41,0,0.615-0.184,0.615-0.551
		v-5.434c0-0.419-0.206-0.63-0.615-0.63h-4.23c-0.359,0-0.538,0.211-0.538,0.63V84.537z M385.625,72.647
		c0.358,0,0.539-0.209,0.539-0.63v-5.354c0-0.366-0.18-0.551-0.539-0.551h-4.46c-0.411,0-0.615,0.185-0.615,0.551v5.354
		c0,0.421,0.204,0.63,0.615,0.63H385.625z M385.625,85.088c0.358,0,0.539-0.184,0.539-0.551v-5.434c0-0.419-0.18-0.63-0.539-0.63
		h-4.46c-0.411,0-0.615,0.211-0.615,0.63v5.434c0,0.367,0.204,0.551,0.615,0.551H385.625z"/>
	<path fill="#303030" d="M443.146,80.049c0.666,0.84,1,1.811,1,2.913s-0.308,2.074-0.923,2.913
		c-0.513,0.684-1.192,0.984-2.038,0.906c-0.846-0.079-1.474-0.485-1.884-1.221c-1.18-2.047-2.564-4.331-4.152-6.851
		c-0.052-0.104-0.116-0.144-0.192-0.118c-0.077,0.027-0.115,0.093-0.115,0.197v31.022c0,0.997-0.346,1.851-1.038,2.56
		c-0.692,0.708-1.526,1.063-2.5,1.063c-0.975,0-1.807-0.354-2.5-1.063c-0.692-0.709-1.038-1.563-1.038-2.56V81.388
		c0-0.104-0.026-0.158-0.077-0.158c-0.052,0-0.104,0.027-0.154,0.079c-2.411,5.984-4.948,11.023-7.613,15.118
		c-0.461,0.683-1.115,0.983-1.961,0.905c-0.846-0.079-1.475-0.512-1.884-1.3c-0.461-0.892-0.692-1.836-0.692-2.834
		c0-0.157,0-0.315,0-0.473c0.05-1.154,0.41-2.23,1.077-3.229c4.101-5.773,7.459-12.413,10.074-19.921
		c0.051-0.157,0.039-0.287-0.038-0.394c-0.077-0.104-0.192-0.157-0.346-0.157h-7.537c-0.974,0-1.795-0.341-2.46-1.023
		c-0.667-0.682-1-1.509-1-2.48c0-0.971,0.333-1.798,1-2.48c0.666-0.682,1.486-1.023,2.46-1.023h8.536c0.41,0,0.615-0.209,0.615-0.63
		v-9.606c0-0.419-0.18-0.576-0.538-0.472c-1.642,0.263-3.768,0.604-6.383,1.023c-0.821,0.105-1.59-0.079-2.307-0.552
		c-0.719-0.472-1.23-1.128-1.538-1.968c-0.257-0.734-0.206-1.443,0.154-2.126c0.358-0.682,0.896-1.075,1.615-1.182
		c7.485-1.364,13.714-2.938,18.688-4.724c0.512-0.21,1.05-0.315,1.615-0.315c0.461,0,0.923,0.079,1.384,0.236
		c1.025,0.315,1.846,0.919,2.461,1.811c0.358,0.525,0.538,1.077,0.538,1.654c0,0.263-0.052,0.551-0.154,0.866
		c-0.257,0.893-0.846,1.496-1.769,1.811c-1.744,0.525-3.795,1.076-6.152,1.653c-0.359,0.106-0.538,0.342-0.538,0.709v11.181
		c0,0.421,0.204,0.63,0.615,0.63h6.998c0.923,0,1.717,0.342,2.384,1.023c0.666,0.683,1,1.51,1,2.48c0,0.972-0.334,1.799-1,2.48
		c-0.667,0.683-1.461,1.023-2.384,1.023h-7.075c-0.359,0-0.538,0.185-0.538,0.551c0,0.368,0.127,0.684,0.384,0.945
		C437.173,72.675,439.813,75.85,443.146,80.049z M487.057,87.607c0.051,0.211,0.077,0.394,0.077,0.552
		c0,0.735-0.231,1.417-0.692,2.047c-0.564,0.84-1.307,1.339-2.23,1.496l-5.691,0.944c-0.411,0.106-0.615,0.343-0.615,0.709v16.378
		c0,0.996-0.346,1.862-1.038,2.598c-0.692,0.735-1.538,1.103-2.538,1.103s-1.859-0.367-2.576-1.103
		c-0.719-0.735-1.077-1.602-1.077-2.598V94.694c0-0.42-0.18-0.604-0.538-0.552l-20.764,3.622c-0.206,0-0.411,0-0.615,0
		c-0.718,0-1.384-0.209-2-0.63c-0.82-0.577-1.307-1.364-1.461-2.362c0-0.209,0-0.419,0-0.63c0-0.734,0.204-1.442,0.615-2.126
		c0.615-0.787,1.409-1.26,2.384-1.417l21.84-3.779c0.358-0.052,0.538-0.288,0.538-0.709V43.199c0-1.05,0.358-1.929,1.077-2.638
		c0.717-0.709,1.577-1.063,2.576-1.063s1.846,0.354,2.538,1.063c0.692,0.709,1.038,1.588,1.038,2.638v41.731
		c0,0.421,0.205,0.578,0.615,0.473l4.538-0.788c0.204,0,0.41,0,0.615,0c0.718,0,1.384,0.211,2,0.63
		C486.441,85.823,486.903,86.611,487.057,87.607z M463.294,74.458c0.666,0.63,1,1.418,1,2.362c0,0.998-0.359,1.864-1.077,2.599
		c-0.615,0.63-1.359,0.944-2.23,0.944c-0.052,0-0.104,0-0.154,0c-0.923-0.051-1.718-0.419-2.384-1.102
		c-2.358-2.52-5.127-5.013-8.305-7.48c-0.667-0.524-1.013-1.193-1.038-2.008c-0.026-0.813,0.243-1.509,0.808-2.087
		c0.666-0.63,1.461-0.971,2.384-1.023c0.102,0,0.204,0,0.308,0c0.819,0,1.563,0.236,2.23,0.709
		C458.167,69.84,460.987,72.202,463.294,74.458z M465.524,53.277c0.615,0.684,0.923,1.471,0.923,2.362
		c0,1.051-0.385,1.942-1.154,2.678c-0.615,0.578-1.333,0.865-2.153,0.865c-0.104,0-0.206,0-0.308,0
		c-0.923-0.104-1.692-0.498-2.307-1.181c-2.051-2.256-4.537-4.593-7.459-7.008c-0.667-0.524-1.013-1.207-1.038-2.047
		c-0.026-0.839,0.269-1.522,0.884-2.048c0.717-0.63,1.538-0.971,2.461-1.023c0.05,0,0.127,0,0.23,0c0.819,0,1.588,0.264,2.307,0.788
		C460.884,48.921,463.421,51.126,465.524,53.277z"/>
	<path fill="#303030" d="M520.771,75.088c0.256-0.052,0.512-0.078,0.769-0.078c0.563,0,1.102,0.157,1.615,0.472
		c0.717,0.525,1.127,1.234,1.23,2.126c0.051,0.211,0.077,0.395,0.077,0.552c0,0.787-0.206,1.496-0.615,2.126
		c-0.565,0.84-1.308,1.392-2.23,1.653l-5.152,1.575c-0.411,0.105-0.615,0.367-0.615,0.787v20.551c0,1.995-0.23,3.529-0.692,4.606
		c-0.461,1.075-1.257,1.876-2.384,2.401c-1.538,0.787-4.076,1.232-7.613,1.338c-0.052,0-0.104,0-0.154,0
		c-0.975,0-1.846-0.314-2.615-0.944c-0.769-0.683-1.334-1.523-1.692-2.52c-0.257-0.788-0.154-1.536,0.308-2.244
		c0.461-0.709,1.102-1.063,1.922-1.063c0.512,0.054,0.974,0.079,1.384,0.079c1.384,0,2.333-0.025,2.846-0.079
		c0.563,0,0.961-0.118,1.192-0.354c0.23-0.236,0.346-0.643,0.346-1.221V86.348c0-0.157-0.051-0.275-0.154-0.354
		c-0.103-0.078-0.23-0.091-0.384-0.039c-1.795,0.525-3.333,0.945-4.614,1.26c-0.308,0.105-0.642,0.157-1,0.157
		c-0.615,0-1.205-0.157-1.769-0.472c-0.873-0.524-1.436-1.286-1.692-2.284c-0.052-0.366-0.077-0.708-0.077-1.023
		c0-0.63,0.154-1.232,0.461-1.811c0.512-0.839,1.256-1.391,2.23-1.653c1.846-0.42,3.999-0.945,6.46-1.575
		c0.358-0.104,0.538-0.341,0.538-0.709V62.805c0-0.366-0.18-0.551-0.538-0.551h-5.768c-0.923,0-1.718-0.341-2.384-1.023
		c-0.667-0.682-1-1.509-1-2.48c0-0.971,0.333-1.784,1-2.44c0.666-0.656,1.461-0.984,2.384-0.984h5.768
		c0.358,0,0.538-0.209,0.538-0.63V43.12c0-0.996,0.346-1.85,1.039-2.559c0.692-0.709,1.538-1.063,2.538-1.063
		s1.846,0.354,2.538,1.063c0.692,0.709,1.038,1.563,1.038,2.559v11.496c0,0.421,0.205,0.63,0.615,0.63h4.23
		c0.973,0,1.794,0.342,2.46,1.023c0.666,0.683,1,1.51,1,2.48c0,0.972-0.334,1.799-1,2.48c-0.667,0.683-1.487,1.023-2.46,1.023h-4.23
		c-0.411,0-0.615,0.185-0.615,0.551v12.992c0,0.157,0.064,0.289,0.192,0.394c0.127,0.105,0.269,0.132,0.423,0.079L520.771,75.088z
		 M561.452,69.419c0.769-0.104,1.487-0.025,2.153,0.236l1.308,0.551c0.666,0.264,1.166,0.736,1.5,1.418
		c0.333,0.683,0.371,1.365,0.115,2.047c-3.025,9.448-7.742,17.375-14.15,23.779c-0.308,0.263-0.308,0.525,0,0.787
		c4.46,3.307,9.509,5.933,15.149,7.874c0.872,0.263,1.41,0.84,1.615,1.732c0.102,0.262,0.154,0.523,0.154,0.787
		c0,0.577-0.206,1.103-0.615,1.574c-0.667,0.997-1.538,1.706-2.615,2.126c-0.565,0.21-1.128,0.315-1.692,0.315
		c-0.513,0-1.026-0.105-1.538-0.315c-6.05-2.204-11.458-5.301-16.226-9.291c-0.257-0.209-0.538-0.209-0.846,0
		c-5.127,3.833-10.92,6.902-17.38,9.213c-0.461,0.157-0.923,0.236-1.384,0.236c-0.565,0-1.128-0.132-1.692-0.394
		c-1.026-0.473-1.82-1.209-2.384-2.205c-0.257-0.473-0.385-0.972-0.385-1.496c0-0.314,0.051-0.657,0.154-1.023
		c0.308-0.892,0.896-1.496,1.769-1.812c5.792-1.836,11.15-4.409,16.072-7.716c0.308-0.209,0.333-0.445,0.077-0.709
		c-4.768-5.512-8.588-12.047-11.458-19.605c-0.257-0.577-0.077-0.971,0.538-1.182h-0.23c-0.769,0-1.423-0.275-1.961-0.826
		c-0.539-0.552-0.808-1.246-0.808-2.087v-0.551c0-0.945,0.32-1.745,0.961-2.401c0.64-0.656,1.422-0.984,2.345-0.984h12.304
		c0.41,0,0.615-0.209,0.615-0.63v-9.843c0-0.366-0.205-0.551-0.615-0.551h-13.688c-0.922,0-1.718-0.341-2.384-1.023
		c-0.667-0.682-1-1.496-1-2.441c0-0.944,0.333-1.758,1-2.44c0.666-0.682,1.461-1.023,2.384-1.023h13.688
		c0.41,0,0.615-0.184,0.615-0.552v-7.795c0-1.05,0.346-1.929,1.039-2.638c0.692-0.709,1.538-1.063,2.538-1.063
		c1,0,1.857,0.354,2.576,1.063c0.717,0.709,1.077,1.588,1.077,2.638v7.795c0,0.368,0.179,0.552,0.538,0.552h14.304
		c0.923,0,1.704,0.342,2.346,1.023c0.64,0.683,0.961,1.496,0.961,2.44c0,0.945-0.321,1.76-0.961,2.441
		c-0.642,0.683-1.423,1.023-2.346,1.023h-14.304c-0.359,0-0.538,0.185-0.538,0.551v9.843c0,0.421,0.179,0.63,0.538,0.63h10.458
		C561.247,69.498,561.349,69.472,561.452,69.419z M557.761,76.899c0.05-0.157,0.038-0.288-0.039-0.394
		c-0.077-0.104-0.167-0.158-0.269-0.158h-20.917c-0.154,0-0.269,0.054-0.346,0.158c-0.077,0.105-0.09,0.236-0.039,0.394
		c2.511,5.984,5.818,11.181,9.92,15.59c0.308,0.315,0.588,0.342,0.846,0.079C551.634,88.055,555.249,82.832,557.761,76.899z"/>
	<path fill="#303030" d="M610.562,68.396c-0.104-0.104-0.219-0.131-0.346-0.079c-0.128,0.054-0.192,0.158-0.192,0.315v36.298
		c0,1.943-0.206,3.478-0.615,4.606c-0.411,1.128-1.128,1.98-2.153,2.56c-1.436,0.787-3.743,1.232-6.921,1.338h-0.077
		c-0.975,0-1.872-0.342-2.691-1.023c-0.821-0.683-1.384-1.574-1.692-2.677c-0.257-0.841-0.142-1.614,0.346-2.323
		c0.487-0.708,1.166-1.063,2.038-1.063c0.615,0,1.127,0,1.538,0c0.41,0,0.833,0,1.269,0c0.435,0,0.704,0,0.807,0
		c0.512-0.052,0.871-0.184,1.077-0.394c0.205-0.21,0.308-0.604,0.308-1.182V86.899c0-0.367-0.18-0.552-0.538-0.552h-8.69
		c-0.411,0-0.615,0.185-0.615,0.552c-0.667,9.554-2.103,17.375-4.307,23.464c-0.308,0.839-0.897,1.364-1.769,1.574
		c-0.308,0.104-0.615,0.158-0.923,0.158c-0.513,0-1.026-0.158-1.538-0.473c-0.821-0.473-1.411-1.155-1.769-2.048
		c-0.154-0.472-0.231-0.944-0.231-1.417c0-0.421,0.077-0.866,0.231-1.339c1.742-4.775,2.871-10.13,3.383-16.063
		c0.512-5.931,0.769-12.466,0.769-19.605V46.979c0-1.312,0.448-2.414,1.346-3.307c0.896-0.893,1.961-1.339,3.191-1.339h13.688
		c1.281,0,2.358,0.446,3.23,1.339c0.871,0.893,1.308,1.995,1.308,3.307v20c0,0.105,0.063,0.185,0.192,0.236
		c0.127,0.053,0.243,0.053,0.346,0c2.871-2.1,4.818-4.475,5.845-7.126c1.025-2.65,1.538-5.577,1.538-8.779v-4.567
		c0-1.312,0.435-2.414,1.307-3.307c0.871-0.893,1.948-1.339,3.23-1.339h16.534c1.23,0,2.294,0.446,3.191,1.339
		c0.896,0.893,1.346,1.995,1.346,3.307v14.331c0,0.997,0.05,1.613,0.154,1.85c0.102,0.236,0.41,0.354,0.923,0.354h2.845
		c0.512,0,0.871-0.341,1.077-1.023c0.205-0.682,0.358-2.126,0.461-4.331c0.051-0.787,0.396-1.351,1.038-1.692
		c0.641-0.341,1.294-0.38,1.961-0.118c0.923,0.421,1.666,1.023,2.23,1.811c0.461,0.684,0.692,1.418,0.692,2.205
		c0,0.157,0,0.289,0,0.394c-0.359,3.518-1.038,5.919-2.038,7.205c-1,1.286-2.526,1.929-4.576,1.929h-4.768
		c-2.718,0-4.576-0.591-5.575-1.771c-1-1.182-1.5-3.425-1.5-6.732V49.655c0-0.366-0.181-0.551-0.539-0.551h-10.458
		c-0.359,0-0.539,0.185-0.539,0.551v1.891c0,7.821-2.076,13.885-6.229,18.188c-0.872,0.84-1.872,1.26-2.999,1.26
		c-0.103,0-0.206,0-0.308,0c-1.282-0.104-2.436-0.604-3.46-1.496C611.433,69.078,610.972,68.71,610.562,68.396z M593.875,78.632
		c0,0.42,0.179,0.63,0.538,0.63h8.306c0.358,0,0.538-0.21,0.538-0.63V68.238c0-0.42-0.18-0.63-0.538-0.63h-8.229
		c-0.359,0-0.539,0.21-0.539,0.63v2.913C593.951,74.406,593.925,76.899,593.875,78.632z M603.256,49.813
		c0-0.367-0.18-0.552-0.538-0.552h-8.229c-0.359,0-0.539,0.185-0.539,0.552v10.314c0,0.368,0.179,0.551,0.539,0.551h8.229
		c0.358,0,0.538-0.183,0.538-0.551V49.813z M644.553,73.671c0.307-0.104,0.615-0.157,0.922-0.157c0.461,0,0.923,0.105,1.384,0.314
		l1.23,0.473c0.666,0.264,1.166,0.735,1.5,1.417c0.333,0.684,0.372,1.366,0.116,2.048c-2.513,7.874-6.383,14.672-11.612,20.393
		c-0.257,0.315-0.23,0.579,0.077,0.788c4.05,2.94,8.485,5.275,13.304,7.008c0.871,0.314,1.435,0.919,1.692,1.811
		c0.05,0.262,0.077,0.524,0.077,0.787c0,0.577-0.18,1.129-0.538,1.653c-0.769,0.997-1.692,1.706-2.769,2.126
		c-0.513,0.158-1.051,0.236-1.615,0.236c-0.565,0-1.128-0.078-1.692-0.236c-5.229-2.1-9.895-4.83-13.996-8.188
		c-0.308-0.262-0.615-0.262-0.923,0c-4.256,3.254-8.92,5.932-13.996,8.031c-0.461,0.209-0.949,0.315-1.461,0.315
		c-0.513,0-1.026-0.106-1.538-0.315c-0.975-0.421-1.769-1.103-2.384-2.047c-0.359-0.525-0.538-1.051-0.538-1.575
		c0-0.314,0.05-0.63,0.154-0.944c0.256-0.839,0.794-1.418,1.615-1.732c4.665-1.732,8.895-4.016,12.689-6.851
		c0.358-0.209,0.384-0.472,0.077-0.787c-3.025-3.517-5.64-7.349-7.844-11.496c-0.359-0.577-0.538-1.181-0.538-1.811
		c0-0.473,0.127-0.971,0.384-1.496c0.461-1.154,1.256-1.941,2.384-2.362l0.846-0.236c0.05-0.052,0.077-0.104,0.077-0.157
		c0-0.052-0.026-0.079-0.077-0.079h-4.46c-0.975,0-1.782-0.341-2.422-1.023c-0.642-0.682-0.961-1.496-0.961-2.44
		c0-0.945,0.32-1.759,0.961-2.441c0.641-0.682,1.448-1.023,2.422-1.023h27.146C644.347,73.671,644.449,73.671,644.553,73.671z
		 M640.861,81.151c0.05-0.104,0.039-0.223-0.039-0.354c-0.077-0.131-0.192-0.197-0.346-0.197h-16.688
		c-0.154,0-0.269,0.066-0.346,0.197c-0.077,0.132-0.065,0.25,0.039,0.354c2.05,4.515,4.818,8.609,8.305,12.283
		c0.256,0.263,0.512,0.263,0.769,0C635.99,89.865,638.758,85.771,640.861,81.151z"/>
	<path fill="#303030" d="M679.69,43.199c0.41-0.945,1.05-1.653,1.922-2.126c0.564-0.262,1.127-0.394,1.692-0.394
		c0.358,0,0.743,0.053,1.154,0.157c0.923,0.315,1.588,0.919,2,1.812c0.204,0.472,0.308,0.944,0.308,1.417
		c0,0.421-0.077,0.84-0.231,1.26c-1.795,4.409-3.845,8.767-6.152,13.07c-0.206,0.368-0.308,0.736-0.308,1.103v50.313
		c0,0.945-0.346,1.771-1.039,2.48c-0.692,0.709-1.513,1.063-2.46,1.063c-0.95,0-1.757-0.354-2.423-1.063
		c-0.667-0.709-1-1.535-1-2.48V70.601c0-0.052-0.052-0.092-0.154-0.118c-0.104-0.026-0.18-0.013-0.23,0.039
		c-1.18,1.628-2.384,3.177-3.615,4.646c-0.564,0.683-1.23,1.023-1.999,1.023c-0.154,0-0.308,0-0.461,0
		c-0.975-0.157-1.718-0.709-2.23-1.653c-0.461-0.892-0.692-1.837-0.692-2.835c0-0.209,0-0.445,0-0.708
		c0.154-1.26,0.64-2.362,1.461-3.308C671.025,60.863,675.845,52.701,679.69,43.199z M701.184,47.412
		c-0.642-0.656-0.961-1.457-0.961-2.402c0-0.944,0.32-1.731,0.961-2.361c0.64-0.63,1.396-0.945,2.269-0.945h14.304
		c1.281,0,2.434,0.421,3.46,1.26c1.025,0.841,1.717,1.917,2.076,3.229c2.307,8.976,5.999,15.983,11.074,21.023
		c0.871,0.84,1.308,1.863,1.308,3.07c0,0.998-0.334,1.864-1,2.599c-0.718,0.893-1.615,1.392-2.691,1.496c-0.154,0-0.282,0-0.384,0
		c-0.923,0-1.718-0.341-2.384-1.023c-0.359-0.42-0.744-0.84-1.153-1.261c-0.052-0.051-0.128-0.064-0.231-0.039
		c-0.103,0.027-0.154,0.093-0.154,0.197c0,1.155-0.026,1.968-0.077,2.44c-0.308,12.231-0.692,20.774-1.154,25.63
		c-0.461,4.855-1.205,7.965-2.23,9.33c-0.667,0.997-1.397,1.705-2.191,2.126c-0.795,0.42-1.782,0.734-2.961,0.945
		c-1.128,0.104-2.589,0.157-4.383,0.157c-0.308,0-0.615,0-0.923,0c-1.077,0-2-0.368-2.769-1.103
		c-0.769-0.735-1.307-1.653-1.615-2.756c-0.206-0.84-0.065-1.614,0.423-2.322c0.487-0.709,1.14-1.036,1.961-0.984
		c1.025,0.053,2.23,0.078,3.614,0.078c1.127,0,1.923-0.366,2.384-1.102c1.23-1.522,2.05-10.131,2.46-25.826
		c0-0.42-0.18-0.631-0.538-0.631h-10.92c-0.411,0-0.615,0.211-0.615,0.631c-0.769,7.296-2.333,13.635-4.691,19.015
		c-2.359,5.382-6.05,9.907-11.074,13.583c-0.565,0.366-1.18,0.551-1.846,0.551c-0.206,0-0.461-0.027-0.769-0.079
		c-0.923-0.21-1.692-0.708-2.307-1.496c-0.461-0.63-0.692-1.286-0.692-1.968c0-0.158,0.025-0.315,0.077-0.473
		c0.102-0.892,0.512-1.601,1.23-2.126c4.255-2.992,7.331-6.719,9.228-11.181c1.896-4.461,3.153-9.736,3.768-15.826
		c0-0.42-0.18-0.631-0.538-0.631h-4.768c-1.23,0-2.295-0.445-3.191-1.338c-0.897-0.893-1.346-1.994-1.346-3.308v-1.338
		c0-0.104-0.039-0.17-0.115-0.197c-0.077-0.025-0.142-0.012-0.192,0.039c-0.769,0.945-1.436,1.76-2,2.441
		c-0.615,0.683-1.359,1.023-2.23,1.023c-0.923,0-1.744-0.341-2.461-1.023c-0.667-0.682-1-1.521-1-2.52
		c0-0.893,0.281-1.653,0.846-2.283c4.101-4.934,7.383-10.734,9.843-17.401c0.358-0.997,0.974-1.758,1.846-2.283
		c0.615-0.367,1.23-0.552,1.846-0.552c0.308,0,0.615,0.053,0.923,0.157c0.973,0.211,1.692,0.762,2.153,1.654
		c0.256,0.472,0.384,0.972,0.384,1.496c0,0.367-0.103,0.761-0.308,1.181c-2.614,6.614-5.64,12.283-9.074,17.008
		c-0.103,0.105-0.128,0.21-0.077,0.314c0.05,0.106,0.154,0.157,0.308,0.157h35.067c0.102,0,0.179-0.051,0.23-0.157
		c0.051-0.104,0.051-0.184,0-0.236c-4.819-6.142-8.332-13.516-10.535-22.125c-0.104-0.367-0.359-0.552-0.769-0.552h-12.458
		C702.58,48.396,701.824,48.068,701.184,47.412z"/>
	<path fill="#303030" d="M815.453,50.601c0.692,0.683,1.038,1.023,1.038,1.023s0,0.486,0,1.457c0,0.972-0.346,1.799-1.038,2.48
		c-0.692,0.683-1.5,1.023-2.422,1.023h-38.066c-0.359,0-0.615,0.185-0.769,0.551c-1.026,2.153-2.23,4.488-3.614,7.008
		c-0.052,0.105-0.052,0.21,0,0.315c0.05,0.105,0.154,0.157,0.308,0.157h31.991c1.23,0,2.294,0.46,3.191,1.378
		c0.896,0.919,1.346,2.008,1.346,3.268v35.511c0,2.101-0.27,3.727-0.808,4.882c-0.539,1.154-1.475,2.021-2.807,2.599
		c-1.743,0.734-5.075,1.128-9.997,1.181c-1.077,0-2.026-0.342-2.845-1.023c-0.821-0.735-1.411-1.628-1.769-2.677
		c-0.308-0.841-0.205-1.628,0.308-2.362c0.512-0.734,1.179-1.075,2-1.023c1.742,0,3.23,0,4.46,0c1.077,0,1.922,0,2.538,0
		c0.666,0,1.127-0.118,1.384-0.354c0.256-0.236,0.385-0.669,0.385-1.299v-6.3c0-0.419-0.206-0.63-0.615-0.63h-29.607
		c-0.411,0-0.615,0.211-0.615,0.63v11.417c0,0.997-0.346,1.863-1.038,2.599c-0.692,0.734-1.538,1.103-2.538,1.103
		s-1.859-0.368-2.576-1.103c-0.719-0.735-1.077-1.602-1.077-2.599V77.136c0-0.104-0.052-0.17-0.154-0.197
		c-0.104-0.025-0.18,0.014-0.23,0.118c-2.667,3.149-5.487,5.933-8.459,8.347c-0.667,0.525-1.384,0.787-2.153,0.787
		c-0.205,0-0.384,0-0.538,0c-1.026-0.157-1.872-0.656-2.538-1.496c-0.565-0.682-0.846-1.443-0.846-2.283
		c0-1.154,0.435-2.073,1.308-2.756c6.767-5.512,12.585-13.018,17.457-22.52c0.05-0.157,0.038-0.288-0.039-0.394
		c-0.077-0.104-0.167-0.157-0.269-0.157h-14.611c-0.923,0-1.718-0.341-2.384-1.023c-0.667-0.682-1-1.509-1-2.48
		c0-0.971,0.333-1.798,1-2.48c0.666-0.682,1.461-1.023,2.384-1.023h17.61c0.358,0,0.615-0.184,0.769-0.552
		c0.717-1.89,1.384-3.805,2-5.747c0.308-1.05,0.948-1.863,1.922-2.441c0.615-0.366,1.281-0.551,2-0.551
		c0.308,0,0.615,0.026,0.923,0.078c0.973,0.264,1.717,0.841,2.23,1.732c0.308,0.578,0.461,1.155,0.461,1.732
		c0,0.368-0.052,0.762-0.154,1.181c-0.513,1.523-0.975,2.862-1.384,4.016c-0.051,0.106-0.038,0.225,0.039,0.354
		c0.077,0.132,0.192,0.197,0.346,0.197h35.144C813.953,49.577,814.76,49.919,815.453,50.601z M799.649,78.159
		c0.41,0,0.615-0.184,0.615-0.552v-5.826c0-0.42-0.206-0.63-0.615-0.63h-29.607c-0.411,0-0.615,0.21-0.615,0.63v5.826
		c0,0.368,0.205,0.552,0.615,0.552H799.649z M769.427,90.915c0,0.367,0.205,0.551,0.615,0.551h29.607
		c0.41,0,0.615-0.184,0.615-0.551v-5.827c0-0.419-0.206-0.63-0.615-0.63h-29.607c-0.411,0-0.615,0.211-0.615,0.63V90.915z"/>
	<path fill="#303030" d="M849.937,42.884c0.204-0.051,0.384-0.078,0.538-0.078c0.41,0,0.819,0.105,1.23,0.314l1.615,1.023
		c0.717,0.421,1.23,1.038,1.538,1.851c0.308,0.814,0.308,1.614,0,2.401c-2.41,7.087-4.691,13.177-6.844,18.268
		c-0.154,0.368-0.103,0.709,0.154,1.023c4.409,4.935,6.614,10.394,6.614,16.378c0,4.935-1.154,8.188-3.461,9.764
		c-1.076,0.787-2.538,1.339-4.383,1.653c-0.615,0.053-1.333,0.105-2.153,0.157c-0.051,0-0.103,0-0.154,0
		c-0.922,0-1.718-0.341-2.384-1.023c-0.769-0.682-1.282-1.521-1.538-2.52c-0.154-0.787,0-1.521,0.461-2.205
		c0.461-0.681,1.077-0.996,1.846-0.944c0.204,0,0.512,0,0.923,0c1.23-0.104,2.102-0.367,2.615-0.787
		c1.025-0.682,1.538-2.152,1.538-4.41c0-0.209,0-0.394,0-0.551c0-3.937-1.334-7.795-3.999-11.574
		c-1.18-1.732-1.769-3.465-1.769-5.197c0-0.892,0.154-1.811,0.461-2.756c1.435-4.094,2.845-8.582,4.229-13.464
		c0.05-0.157,0.025-0.288-0.077-0.394c-0.103-0.104-0.23-0.158-0.384-0.158h-8.152c-0.411,0-0.615,0.185-0.615,0.552v59.763
		c0,0.996-0.334,1.837-1,2.52c-0.667,0.682-1.487,1.023-2.461,1.023c-0.975,0-1.795-0.342-2.461-1.023c-0.667-0.683-1-1.523-1-2.52
		V47.53c0-1.312,0.448-2.414,1.346-3.308c0.896-0.892,1.961-1.339,3.191-1.339h14.304C849.808,42.884,849.885,42.884,849.937,42.884
		z M890.232,83.277c0.718-0.734,1.563-1.182,2.538-1.339c0.154,0,0.308,0,0.461,0c0.819,0,1.563,0.236,2.23,0.709
		c0.819,0.578,1.23,1.365,1.23,2.361c0,0.841-0.308,1.55-0.923,2.126c-3.025,2.678-5.948,5.118-8.767,7.323
		c-0.308,0.21-0.359,0.473-0.154,0.787c1.384,2.047,2.909,3.897,4.576,5.551c1.665,1.654,3.447,3.085,5.344,4.292
		c0.82,0.525,1.308,1.26,1.461,2.204c0.05,0.209,0.077,0.42,0.077,0.63c0,0.734-0.23,1.391-0.692,1.969
		c-0.719,0.945-1.59,1.548-2.615,1.811c-0.308,0.052-0.615,0.079-0.923,0.079c-0.718,0-1.411-0.21-2.076-0.63
		c-8.665-5.932-14.765-16.378-18.303-31.338c-0.103-0.366-0.359-0.551-0.769-0.551h-6.152c-0.359,0-0.539,0.185-0.539,0.551v21.731
		c0,0.421,0.179,0.579,0.539,0.473l9.689-1.89c0.819-0.157,1.588,0.027,2.307,0.551c0.769,0.631,1.153,1.471,1.153,2.521
		c0,0.787-0.257,1.522-0.769,2.204c-0.513,0.736-1.23,1.208-2.153,1.417c-5.794,1.365-12.561,2.914-20.302,4.646
		c-0.308,0.051-0.615,0.078-0.923,0.078c-0.718,0-1.384-0.185-2-0.551c-0.923-0.525-1.564-1.313-1.922-2.362
		c-0.154-0.368-0.231-0.709-0.231-1.023c0-0.577,0.154-1.128,0.461-1.653c0.512-0.893,1.256-1.418,2.23-1.575
		c0.102,0,0.692-0.104,1.769-0.314s1.896-0.367,2.461-0.473c0.41-0.052,0.615-0.288,0.615-0.709V47.688
		c0-1.312,0.435-2.414,1.307-3.308c0.871-0.892,1.948-1.338,3.23-1.338h26.531c1.281,0,2.358,0.446,3.23,1.338
		c0.871,0.894,1.308,1.996,1.308,3.308v26.929c0,1.26-0.437,2.35-1.308,3.268c-0.872,0.919-1.949,1.378-3.23,1.378h-9.843
		c-0.103,0-0.206,0.053-0.308,0.157c-0.103,0.105-0.128,0.236-0.077,0.394c0.973,3.256,2.102,6.326,3.383,9.213
		c0.154,0.367,0.385,0.42,0.692,0.157C886.388,87.135,888.438,85.167,890.232,83.277z M887.618,50.05
		c0-0.367-0.18-0.552-0.539-0.552h-20.302c-0.359,0-0.539,0.185-0.539,0.552v7.243c0,0.368,0.179,0.552,0.539,0.552h20.302
		c0.358,0,0.539-0.184,0.539-0.552V50.05z M866.778,64.144c-0.359,0-0.539,0.21-0.539,0.63v7.401c0,0.421,0.179,0.63,0.539,0.63
		h20.302c0.358,0,0.539-0.209,0.539-0.63v-7.401c0-0.42-0.18-0.63-0.539-0.63H866.778z"/>
	<path fill="#303030" d="M928.83,45.64c0.512-1.153,1.308-1.994,2.384-2.52c0.666-0.366,1.357-0.551,2.076-0.551
		c0.461,0,0.896,0.053,1.307,0.157c1.127,0.315,1.923,0.998,2.384,2.048c0.256,0.524,0.384,1.05,0.384,1.574
		c0,0.525-0.128,1.051-0.384,1.575c-4.512,9.921-10.074,18.478-16.688,25.668c-0.82,0.894-1.872,1.366-3.153,1.418h-0.077
		c-1.23,0-2.307-0.394-3.23-1.182c-0.975-0.734-1.461-1.732-1.461-2.992c0-0.996,0.384-1.862,1.153-2.598
		C919.679,62.149,924.78,54.616,928.83,45.64z M955.899,89.025c-0.461-0.577-0.692-1.207-0.692-1.891
		c0-0.262,0.025-0.523,0.077-0.787c0.256-0.944,0.82-1.626,1.692-2.047c0.666-0.315,1.358-0.473,2.076-0.473
		c0.358,0,0.743,0.027,1.154,0.079c1.127,0.263,2.024,0.84,2.691,1.732c2.615,3.359,5.165,6.824,7.652,10.393
		c2.486,3.57,4.626,6.878,6.421,9.922c0.358,0.683,0.538,1.364,0.538,2.047c0,0.42-0.052,0.813-0.154,1.181
		c-0.308,1.154-0.975,2.021-2,2.599c-0.667,0.315-1.333,0.473-2,0.473c-0.411,0-0.82-0.053-1.23-0.157
		c-1.128-0.368-1.974-1.077-2.538-2.126c-0.411-0.684-0.821-1.418-1.23-2.205c-0.206-0.314-0.513-0.446-0.923-0.394
		c-11.946,0.734-28.326,1.626-49.14,2.677c-0.052,0-0.129,0-0.231,0c-0.975,0-1.872-0.314-2.691-0.944
		c-0.821-0.736-1.308-1.653-1.461-2.756c0-0.158,0-0.315,0-0.473c0-0.892,0.281-1.68,0.846-2.362
		c0.666-0.787,1.538-1.207,2.615-1.26c0.819-0.052,2.922-0.13,6.306-0.236c0.41-0.052,0.692-0.236,0.846-0.551
		c4.921-9.186,9.1-18.74,12.535-28.661c0.41-1.207,1.179-2.126,2.307-2.756c0.717-0.419,1.486-0.63,2.307-0.63
		c0.358,0,0.743,0.053,1.153,0.157c1.127,0.315,1.973,0.998,2.538,2.048c0.256,0.578,0.384,1.155,0.384,1.732
		c0,0.524-0.104,1.05-0.308,1.574c-4.153,9.764-8.305,18.504-12.458,26.22c-0.052,0.106-0.052,0.211,0,0.315
		c0.05,0.105,0.154,0.157,0.308,0.157c11.228-0.473,21.173-0.945,29.838-1.417c0.154,0,0.256-0.052,0.308-0.158
		c0.05-0.104,0.025-0.209-0.077-0.314C960.898,95.954,958.411,92.385,955.899,89.025z M954.438,48.238
		c-0.308-0.577-0.461-1.154-0.461-1.732c0-0.419,0.077-0.813,0.23-1.181c0.308-0.997,0.948-1.732,1.923-2.205
		c0.563-0.209,1.127-0.314,1.692-0.314c0.461,0,0.948,0.078,1.461,0.236c1.025,0.421,1.819,1.102,2.384,2.047
		c4.409,7.822,9.869,15.171,16.38,22.047c0.82,0.84,1.23,1.838,1.23,2.992c0,1.26-0.436,2.336-1.307,3.229
		c-0.821,0.893-1.82,1.338-2.999,1.338c-0.052,0-0.104,0-0.154,0c-1.077,0-2-0.419-2.769-1.26
		C965.538,65.719,959.667,57.32,954.438,48.238z"/>
	<path fill="#303030" d="M1051.277,44.459c1.281,0,2.358,0.46,3.23,1.378c0.871,0.919,1.308,2.008,1.308,3.268v54.094
		c0,2.415-0.283,4.277-0.846,5.59c-0.564,1.312-1.564,2.257-2.999,2.835c-2,0.944-5.563,1.443-10.689,1.496h-0.077
		c-1.128,0-2.18-0.394-3.153-1.182c-0.923-0.787-1.59-1.785-2-2.992c-0.104-0.314-0.154-0.63-0.154-0.944
		c0-0.63,0.179-1.207,0.538-1.732c0.563-0.787,1.308-1.181,2.23-1.181h0.077c1.896,0.053,3.486,0.078,4.768,0.078
		c1.23,0,2.204-0.025,2.922-0.078c0.717,0,1.217-0.145,1.5-0.434c0.281-0.288,0.423-0.8,0.423-1.535V52.254
		c0-0.419-0.18-0.63-0.539-0.63h-51.601c-0.975,0-1.807-0.341-2.5-1.023c-0.692-0.682-1.038-1.521-1.038-2.52
		c0-0.997,0.346-1.851,1.038-2.56c0.692-0.708,1.525-1.063,2.5-1.063H1051.277z M1036.667,58.947c0.871,0,1.627,0.314,2.269,0.944
		c0.64,0.63,0.961,1.405,0.961,2.323c0,0.919-0.321,1.706-0.961,2.361c-0.642,0.657-1.397,0.984-2.269,0.984h-40.143
		c-0.873,0-1.628-0.327-2.269-0.984c-0.642-0.655-0.961-1.442-0.961-2.361c0-0.918,0.32-1.693,0.961-2.323
		c0.64-0.63,1.396-0.944,2.269-0.944H1036.667z M1034.975,94.537c0,1.26-0.45,2.35-1.346,3.268
		c-0.898,0.919-1.961,1.378-3.191,1.378h-24.917c-0.359,0-0.538,0.185-0.538,0.551v1.653c0,0.998-0.346,1.851-1.038,2.56
		c-0.692,0.708-1.526,1.063-2.5,1.063c-0.974,0-1.807-0.354-2.499-1.063c-0.692-0.709-1.038-1.562-1.038-2.56v-23.7
		c0-1.312,0.435-2.414,1.307-3.307c0.871-0.893,1.948-1.339,3.23-1.339h27.992c1.23,0,2.293,0.446,3.191,1.339
		c0.896,0.893,1.346,1.995,1.346,3.307V94.537z M1027.823,80.049c0-0.367-0.206-0.551-0.615-0.551h-21.687
		c-0.359,0-0.538,0.184-0.538,0.551v11.968c0,0.421,0.179,0.63,0.538,0.63h21.687c0.41,0,0.615-0.209,0.615-0.63V80.049z"/>
</g>
<g>
	<path fill="#E2D600" d="M107.143,103.195l8.26-26.486L102.071,33.96c-1.521-4.879-6.45-7.512-11.009-5.886
		c-4.558,1.628-7.022,6.899-5.501,11.777l21.59,69.236c0.002,0.01,0.006,0.019,0.01,0.027
		C106.575,107.26,106.518,105.197,107.143,103.195z"/>
	<path fill="#F6901B" d="M128.742,33.931c-0.003,0.011-0.007,0.02-0.01,0.029l-13.33,42.749l8.259,26.486
		c0.624,2,0.568,4.063-0.018,5.918c0.002-0.008,0.006-0.017,0.009-0.025l13.331-42.749l-8.26-26.487
		C128.099,37.851,128.156,35.788,128.742,33.931z"/>
	<linearGradient id="SVGID_1_" gradientUnits="userSpaceOnUse" x1="115.4019" y1="71.5527" x2="115.4019" y2="136.6182">
		<stop  offset="0" style="stop-color:#F5B32D"/>
		<stop  offset="1" style="stop-color:#EF8100"/>
	</linearGradient>
	<path fill="url(#SVGID_1_)" d="M123.666,103.199l-8.263-26.501l-8.264,26.501c-0.625,2.003-0.568,4.066,0.019,5.923
		c0.086,0.275,0.186,0.543,0.293,0.804c0.013,0.033,0.026,0.065,0.041,0.099c0.104,0.242,0.217,0.478,0.338,0.705
		c0.024,0.045,0.046,0.09,0.07,0.134c0.119,0.219,0.248,0.427,0.381,0.631c0.031,0.047,0.06,0.093,0.091,0.14
		c0.137,0.202,0.283,0.396,0.434,0.583c0.032,0.04,0.063,0.081,0.095,0.119c0.159,0.191,0.326,0.374,0.498,0.549
		c0.029,0.03,0.058,0.062,0.087,0.091c0.178,0.176,0.363,0.342,0.553,0.5c0.03,0.025,0.06,0.053,0.091,0.078
		c0.185,0.15,0.378,0.292,0.575,0.427c0.043,0.029,0.085,0.06,0.129,0.09c0.182,0.119,0.368,0.229,0.557,0.334
		c0.07,0.038,0.139,0.078,0.211,0.115c0.167,0.087,0.336,0.164,0.508,0.24c0.105,0.046,0.209,0.09,0.317,0.132
		c0.151,0.06,0.306,0.112,0.459,0.163c0.129,0.041,0.257,0.08,0.386,0.115c0.146,0.04,0.292,0.075,0.44,0.106
		c0.135,0.028,0.271,0.054,0.407,0.075c0.144,0.023,0.289,0.044,0.436,0.061c0.14,0.015,0.28,0.023,0.419,0.031
		c0.143,0.007,0.285,0.013,0.43,0.013c0.143,0,0.286-0.006,0.428-0.013c0.139-0.008,0.28-0.017,0.42-0.031
		c0.146-0.017,0.29-0.037,0.434-0.061c0.136-0.021,0.272-0.047,0.408-0.075c0.148-0.031,0.293-0.066,0.439-0.106
		c0.129-0.035,0.258-0.074,0.388-0.115c0.154-0.051,0.307-0.104,0.457-0.163c0.108-0.042,0.214-0.086,0.32-0.133
		c0.17-0.076,0.339-0.152,0.505-0.239c0.072-0.037,0.142-0.077,0.213-0.117c0.188-0.104,0.375-0.213,0.555-0.332
		c0.044-0.03,0.087-0.061,0.13-0.091c0.197-0.134,0.389-0.275,0.575-0.426c0.031-0.025,0.06-0.053,0.09-0.077
		c0.189-0.159,0.375-0.325,0.553-0.501c0.029-0.029,0.057-0.061,0.085-0.091c0.173-0.175,0.34-0.357,0.5-0.549
		c0.032-0.038,0.062-0.079,0.094-0.118c0.151-0.188,0.298-0.382,0.435-0.584c0.031-0.047,0.061-0.092,0.09-0.139
		c0.134-0.204,0.263-0.414,0.382-0.633c0.024-0.043,0.045-0.087,0.068-0.13c0.123-0.23,0.237-0.466,0.341-0.71
		c0.013-0.031,0.025-0.063,0.038-0.095c0.109-0.262,0.208-0.53,0.295-0.808C124.234,107.264,124.29,105.2,123.666,103.199z"/>
	<path fill="#009893" d="M150.304,103.195l8.259-26.486l-13.33-42.749c-0.003-0.009-0.006-0.018-0.01-0.025
		c0.586,1.854,0.642,3.918,0.019,5.917l-8.259,26.487l13.33,42.749c0.003,0.01,0.007,0.019,0.01,0.027
		C149.737,107.26,149.681,105.197,150.304,103.195z"/>
	<path fill="#F6901B" d="M145.228,33.928c-0.087-0.278-0.187-0.546-0.295-0.808c-0.013-0.032-0.025-0.063-0.038-0.095
		c-0.105-0.244-0.219-0.481-0.341-0.711c-0.022-0.043-0.043-0.086-0.068-0.13c-0.12-0.218-0.248-0.429-0.382-0.633
		c-0.03-0.046-0.059-0.092-0.09-0.138c-0.137-0.202-0.284-0.396-0.436-0.585c-0.032-0.039-0.062-0.08-0.094-0.118
		c-0.159-0.191-0.327-0.374-0.5-0.55c-0.029-0.029-0.056-0.061-0.085-0.09c-0.178-0.176-0.363-0.341-0.553-0.5
		c-0.031-0.025-0.06-0.053-0.09-0.077c-0.186-0.152-0.378-0.292-0.575-0.426c-0.043-0.03-0.086-0.062-0.131-0.091
		c-0.18-0.119-0.366-0.229-0.555-0.334c-0.071-0.039-0.141-0.079-0.213-0.115c-0.166-0.087-0.335-0.164-0.506-0.239
		c-0.106-0.047-0.211-0.092-0.32-0.134c-0.15-0.06-0.303-0.112-0.457-0.163c-0.129-0.04-0.259-0.08-0.388-0.115
		c-0.146-0.039-0.292-0.074-0.439-0.107c-0.136-0.028-0.272-0.052-0.408-0.075c-0.145-0.022-0.289-0.043-0.435-0.059
		c-0.141-0.015-0.28-0.024-0.42-0.031c-0.143-0.007-0.286-0.014-0.429-0.014c-0.144,0-0.286,0.007-0.429,0.014
		c-0.14,0.007-0.279,0.017-0.419,0.031c-0.146,0.016-0.292,0.036-0.436,0.059c-0.136,0.023-0.271,0.047-0.408,0.075
		c-0.147,0.033-0.294,0.068-0.439,0.108c-0.129,0.034-0.257,0.074-0.386,0.114c-0.154,0.051-0.308,0.104-0.46,0.163
		c-0.107,0.042-0.212,0.087-0.316,0.133c-0.171,0.075-0.341,0.153-0.509,0.24c-0.071,0.036-0.14,0.076-0.21,0.115
		c-0.189,0.105-0.376,0.215-0.557,0.334c-0.044,0.029-0.086,0.061-0.129,0.09c-0.197,0.135-0.389,0.274-0.576,0.427
		c-0.03,0.024-0.06,0.052-0.089,0.077c-0.19,0.159-0.375,0.324-0.553,0.5c-0.029,0.029-0.057,0.062-0.087,0.091
		c-0.172,0.176-0.339,0.357-0.498,0.549c-0.032,0.038-0.063,0.08-0.095,0.119c-0.151,0.188-0.296,0.382-0.434,0.583
		c-0.031,0.047-0.06,0.094-0.091,0.141c-0.133,0.203-0.262,0.412-0.381,0.629c-0.023,0.045-0.046,0.091-0.069,0.135
		c-0.12,0.229-0.235,0.464-0.338,0.706c-0.015,0.033-0.027,0.065-0.041,0.098c-0.108,0.261-0.207,0.528-0.293,0.804
		c-0.587,1.857-0.644,3.921-0.02,5.924l8.264,26.501l8.264-26.501C145.87,37.848,145.815,35.782,145.228,33.928z"/>
	<linearGradient id="SVGID_2_" gradientUnits="userSpaceOnUse" x1="149.8545" y1="96.0781" x2="167.2729" y2="96.0781">
		<stop  offset="0" style="stop-color:#0088B4"/>
		<stop  offset="1" style="stop-color:#00576E"/>
	</linearGradient>
	<path fill="url(#SVGID_2_)" d="M166.828,103.199l-8.264-26.501l-8.264,26.501c-0.624,2.003-0.568,4.067,0.019,5.923
		c0.086,0.275,0.186,0.543,0.293,0.805c0.014,0.032,0.027,0.064,0.041,0.098c0.104,0.242,0.218,0.478,0.338,0.706
		c0.024,0.044,0.047,0.089,0.07,0.133c0.119,0.219,0.248,0.427,0.381,0.631c0.031,0.047,0.06,0.094,0.091,0.14
		c0.137,0.202,0.283,0.396,0.435,0.583c0.032,0.04,0.062,0.082,0.093,0.12c0.16,0.19,0.327,0.373,0.499,0.548
		c0.03,0.03,0.057,0.063,0.088,0.091c0.177,0.176,0.362,0.343,0.552,0.501c0.03,0.025,0.06,0.052,0.091,0.077
		c0.186,0.15,0.378,0.292,0.574,0.427c0.044,0.029,0.086,0.06,0.13,0.09c0.181,0.12,0.368,0.229,0.557,0.334
		c0.07,0.038,0.14,0.078,0.21,0.116c0.167,0.086,0.337,0.164,0.509,0.239c0.104,0.046,0.209,0.091,0.317,0.133
		c0.152,0.06,0.306,0.112,0.459,0.162c0.128,0.041,0.257,0.08,0.386,0.115c0.145,0.04,0.292,0.075,0.439,0.107
		c0.137,0.027,0.271,0.053,0.408,0.074c0.145,0.023,0.289,0.044,0.435,0.061c0.14,0.015,0.28,0.023,0.419,0.031
		c0.143,0.007,0.285,0.014,0.429,0.014s0.287-0.007,0.43-0.014c0.139-0.008,0.279-0.017,0.42-0.031
		c0.145-0.017,0.29-0.037,0.435-0.061c0.135-0.021,0.271-0.047,0.408-0.074c0.147-0.032,0.293-0.067,0.439-0.107
		c0.129-0.035,0.258-0.074,0.388-0.115c0.154-0.05,0.307-0.103,0.457-0.162c0.108-0.042,0.214-0.087,0.321-0.134
		c0.17-0.075,0.34-0.152,0.505-0.238c0.072-0.038,0.143-0.078,0.213-0.117c0.188-0.104,0.375-0.213,0.555-0.333
		c0.044-0.03,0.087-0.061,0.13-0.091c0.197-0.134,0.389-0.275,0.574-0.426c0.032-0.025,0.06-0.052,0.09-0.077
		c0.19-0.158,0.376-0.325,0.553-0.501c0.029-0.028,0.057-0.061,0.085-0.09c0.173-0.176,0.34-0.358,0.5-0.549
		c0.032-0.038,0.062-0.08,0.094-0.118c0.152-0.188,0.298-0.383,0.435-0.585c0.032-0.046,0.06-0.092,0.09-0.139
		c0.134-0.204,0.262-0.414,0.382-0.632c0.024-0.044,0.045-0.087,0.068-0.131c0.121-0.23,0.236-0.466,0.341-0.71
		c0.013-0.031,0.025-0.063,0.038-0.095c0.108-0.262,0.208-0.53,0.295-0.808C167.396,107.265,167.451,105.2,166.828,103.199z"/>
	<linearGradient id="SVGID_3_" gradientUnits="userSpaceOnUse" x1="163.127" y1="33.3955" x2="195.0074" y2="65.2759">
		<stop  offset="0" style="stop-color:#F5B32D"/>
		<stop  offset="1" style="stop-color:#EF8100"/>
	</linearGradient>
	<circle fill="url(#SVGID_3_)" cx="177.129" cy="47.398" r="17.494"/>
	<linearGradient id="SVGID_4_" gradientUnits="userSpaceOnUse" x1="31.02" y1="96.1465" x2="46.9295" y2="111.4197">
		<stop  offset="0" style="stop-color:#42B286"/>
		<stop  offset="1" style="stop-color:#298388"/>
	</linearGradient>
	<path fill="url(#SVGID_4_)" d="M39.9,96.508c-0.64-0.004-1.186,0.035-1.628,0.122c-1.176,0.225-1.765,0.699-1.765,1.424
		c0,1.171,0.179,2.985,0.539,5.439c0.358,2.456,0.539,4.297,0.539,5.523c0,2.288,0.555,3.653,1.666,4.101
		c0.458,0.146,2.217,0.229,5.279,0.247l-3.423-16.802C40.676,96.531,40.267,96.51,39.9,96.508z"/>
	<linearGradient id="SVGID_5_" gradientUnits="userSpaceOnUse" x1="35.2798" y1="25.8994" x2="78.8731" y2="116.9047">
		<stop  offset="0" style="stop-color:#67C9AF"/>
		<stop  offset="1" style="stop-color:#228BAC"/>
	</linearGradient>
	<path fill="url(#SVGID_5_)" d="M75.313,69.765c-2.091-1.674-7.055-4.378-14.896-8.118c-5.291-2.565-7.937-5.105-7.937-7.616
		c0-3.515,2.514-5.858,7.546-7.029c4.246-0.447,8.459-0.921,12.641-1.424c1.24-0.167,1.862-0.557,1.862-1.171
		c0-0.78-0.605-3.068-1.813-6.862c-1.21-3.793-2.025-6.055-2.45-6.779c-0.425-0.725-1.095-1.088-2.009-1.088
		c-10.192,0-18.619,2.092-25.283,6.276c-7.384,4.688-11.074,11.215-11.074,19.584c0,6.417,2.71,11.605,8.133,15.566
		c1.306,0.949,6.37,3.488,15.189,7.616c5.421,2.567,8.133,5.386,8.133,8.453c0,6.275-5.819,9.497-17.422,9.689
		c-0.366,0.007-0.72,0.02-1.099,0.02c0.064,0-0.915-0.085-2.94-0.252c-0.279-0.03-0.552-0.05-0.808-0.068l3.419,16.803
		c0.436,0.003,0.919,0.005,1.407,0.005c2.631,0,5.155-0.163,7.581-0.472c4.42-0.563,8.494-1.645,12.227-3.233
		c0.293-0.124,0.579-0.259,0.866-0.391c1.778-0.805,3.483-1.72,5.099-2.768c5.726-3.699,9.336-8.293,10.844-13.778
		c0.54-1.961,0.817-4.033,0.817-6.225C83.349,79.696,80.669,74.116,75.313,69.765z"/>
</g>
<g>
	<path d="M591.698,69.804c0-0.204-0.096-0.443-0.479-0.443h-1.199v-0.384c0.72,0,1.451-0.24,2.171-0.744h0.12v7.725
		c0,0.575,0.3,0.659,0.671,0.659h1.067v0.372h-4.077v-0.372h1.127c0.432,0,0.6-0.252,0.6-0.659V69.804z"/>
	<path d="M597.734,69.804c0-0.204-0.096-0.443-0.479-0.443h-1.199v-0.384c0.72,0,1.451-0.24,2.171-0.744h0.12v7.725
		c0,0.575,0.3,0.659,0.671,0.659h1.067v0.372h-4.077v-0.372h1.127c0.432,0,0.6-0.252,0.6-0.659V69.804z"/>
	<path d="M603.831,72.274c0.684,0,1.751-0.575,1.751-2.026c0-0.708-0.432-1.728-1.655-1.728c-0.852,0-1.667,0.563-1.667,1.044
		c0,0.084,0.023,0.168,0.06,0.239c0.061,0.097,0.097,0.192,0.097,0.312c0,0.289-0.192,0.408-0.372,0.408
		c-0.216,0-0.384-0.119-0.384-0.408c0-1.127,1.043-1.979,2.267-1.979c1.619,0,2.255,1.056,2.255,2.111
		c0,1.02-0.456,1.691-1.56,2.219c0.563,0.191,1.883,0.623,1.883,2.17c0,1.164-1.055,2.436-2.794,2.436
		c-1.392,0-2.327-0.828-2.327-1.752c0-0.455,0.265-0.455,0.432-0.455c0.133,0,0.384,0.084,0.384,0.455
		c0,0.013-0.107,0.433-0.107,0.457c0,0.155,0.107,0.323,0.324,0.527c0.275,0.264,0.719,0.396,1.295,0.396
		c1.235,0,2.183-0.815,2.183-2.194c0-1.128-0.983-1.752-2.183-1.752c-0.108,0-0.216,0.012-0.312,0.037l-0.168,0.035l-0.204-0.072
		c-0.084-0.047-0.12-0.131-0.12-0.264c0-0.096,0.024-0.287,0.384-0.287c0.06,0,0.12,0.012,0.168,0.035L603.831,72.274z"/>
	<path d="M609.158,76.4c0,0.287-0.252,0.552-0.563,0.552c-0.36,0-0.516-0.3-0.516-0.552c0-0.396,0.275-0.527,0.516-0.527
		C608.954,75.873,609.158,76.101,609.158,76.4z"/>
	<path d="M610.468,76.988v-0.443c0.684-1.271,1.559-2.387,2.65-3.347c1.176-1.044,1.775-1.991,1.775-2.831
		c0-1.307-0.888-1.847-1.716-1.847c-0.671,0-1.139,0.181-1.427,0.528c-0.276,0.348-0.42,0.623-0.42,0.852
		c0.048,0.215,0.048,0.239,0.084,0.479c0,0.264-0.204,0.443-0.42,0.443c-0.359,0-0.443-0.3-0.443-0.479
		c0-0.731,0.743-2.207,2.626-2.207c1.596,0,2.327,1.127,2.327,2.291c0,0.899-0.611,1.847-1.811,2.842
		c-1.392,1.14-2.123,2.039-2.663,3.107h2.854c0.54,0,0.815-0.156,1.451-1.632h0.252l-0.611,2.243H610.468z"/>
	<path d="M620.605,69.252c0-0.24-0.443-0.695-1.235-0.695c-0.6,0-1.104,0.288-1.523,0.863c-0.432,0.564-0.659,1.668-0.684,3.322
		c0.731-0.672,1.476-0.995,2.195-0.995c1.451,0,2.398,0.72,2.398,2.243c0,1.811-1.175,3.082-2.519,3.082
		c-1.008,0-2.687-0.744-2.687-3.887c0-1.883,0.288-3.214,0.863-3.993c0.504-0.696,1.188-1.032,2.015-1.032
		c0.912,0,1.907,0.685,1.907,1.5c0,0.24-0.132,0.455-0.396,0.455c-0.288,0-0.42-0.203-0.42-0.455L620.605,69.252z M617.163,73.234
		c0,2.938,1.296,3.466,2.075,3.466c0.84,0,1.919-0.696,1.919-2.71c0-1.199-0.768-1.8-1.799-1.8
		C618.734,72.19,618.003,72.539,617.163,73.234z"/>
	<path d="M622.527,76.988v-0.443c0.684-1.271,1.559-2.387,2.65-3.347c1.176-1.044,1.775-1.991,1.775-2.831
		c0-1.307-0.888-1.847-1.716-1.847c-0.671,0-1.139,0.181-1.427,0.528c-0.275,0.348-0.42,0.623-0.42,0.852
		c0.048,0.215,0.048,0.239,0.084,0.479c0,0.264-0.204,0.443-0.42,0.443c-0.359,0-0.443-0.3-0.443-0.479
		c0-0.731,0.743-2.207,2.626-2.207c1.596,0,2.327,1.127,2.327,2.291c0,0.899-0.611,1.847-1.811,2.842
		c-1.392,1.14-2.123,2.039-2.663,3.107h2.854c0.54,0,0.815-0.156,1.451-1.632h0.252l-0.611,2.243H622.527z"/>
	<path d="M632.318,72.515c0-0.3-0.323-0.349-0.936-0.349v-0.371c0.372,0,0.888-0.18,1.548-0.516v0.779
		c0.6-0.539,1.163-0.791,2.003-0.791c1.211,0,2.314,0.982,2.314,2.555c0,2.158-1.644,2.674-2.566,2.674
		c-0.708,0-1.199-0.252-1.751-0.743v1.787c0,0.252,0.216,0.371,0.396,0.371h0.504v0.372h-2.375v-0.372h0.408
		c0.252,0,0.455-0.119,0.455-0.371V72.515z M632.931,75.129c0.252,0.672,1.127,0.996,1.751,0.996c0.455,0,0.852-0.145,1.188-0.432
		c0.516-0.433,0.779-1.057,0.779-1.871c0-1.068-0.647-2.184-1.896-2.184c-0.731,0-1.643,0.468-1.822,1.056V75.129z"/>
	<path d="M640.562,71.411v0.372h-0.42c-0.084,0-0.251,0-0.251,0.144c0,0.036,0.023,0.084,0.06,0.144l1.14,1.571l1.104-1.522
		c0.06-0.072,0.083-0.133,0.083-0.18c0-0.156-0.132-0.156-0.611-0.156v-0.372h2.099v0.372h-0.371c-0.384,0-0.6,0.048-0.78,0.336
		l-1.319,1.811l1.619,2.219c0.3,0.468,0.732,0.468,1.056,0.468v0.372h-2.291v-0.372h0.408c0.191-0.013,0.264-0.071,0.264-0.204
		c0-0.072-0.023-0.156-0.096-0.264l-1.295-1.751l-1.284,1.787c-0.096,0.12-0.144,0.216-0.144,0.276c0,0.035,0,0.131,0.276,0.155
		h0.503v0.372h-2.339v-0.372h0.385c0.251,0,0.635-0.071,0.899-0.432l1.499-2.087l-1.464-2.027c-0.084-0.107-0.191-0.168-0.348-0.228
		l-0.384-0.06h-0.348v-0.372H640.562z"/>
</g>
</svg>
